<svg width="284" height="246" viewBox="0 0 284 246" fill="none" xmlns="http://www.w3.org/2000/svg">
<path d="M87.7556 193.946C75.9038 193.946 66.2637 184.572 66.2637 173.052C66.2637 161.53 75.9038 152.155 87.7556 152.155C99.6051 152.155 109.248 161.53 109.248 173.052C109.248 184.572 99.6051 193.946 87.7556 193.946ZM87.7556 165.413C83.4243 165.413 79.8983 168.841 79.8983 173.052C79.8983 177.263 83.4219 180.688 87.7556 180.688C92.087 180.688 95.6105 177.263 95.6105 173.052C95.6105 168.841 92.087 165.413 87.7556 165.413Z" fill="url(#paint0_linear_72_4793)"/>
<path d="M180.958 193.946C169.106 193.946 159.466 184.572 159.466 173.052C159.466 161.53 169.108 152.155 180.958 152.155C192.807 152.155 202.45 161.53 202.45 173.052C202.447 184.572 192.807 193.946 180.958 193.946ZM180.958 165.413C176.626 165.413 173.101 168.841 173.101 173.052C173.101 177.263 176.624 180.688 180.958 180.688C185.289 180.688 188.813 177.263 188.813 173.052C188.813 168.841 185.287 165.413 180.958 165.413Z" fill="url(#paint1_linear_72_4793)"/>
<path d="M242.286 46.2791C233.706 45.9265 225.125 45.5876 216.538 45.3747C207.838 45.1297 199.123 45.0724 190.413 44.9762L177.334 45.0106L164.244 45.2282C155.51 45.4709 146.775 45.7387 138.011 46.4165C146.61 48.198 155.235 49.5696 163.862 50.9137L176.814 52.7867L189.777 54.4766C198.428 55.4818 207.075 56.5282 215.735 57.3846C221.484 57.9754 227.241 58.4997 232.997 59.008C231.494 63.2464 229.772 67.4047 227.815 71.4484C209.456 71.6087 191.096 72.069 172.739 72.9208C149.469 74.0542 126.199 75.6433 102.929 78.7116C126.199 81.7799 149.469 83.369 172.739 84.5025C188.35 85.226 203.963 85.668 219.574 85.8855C218.926 86.8655 218.283 87.8479 217.605 88.8096C213.085 95.0653 207.953 100.856 202.359 106.157C191.758 106.407 181.159 106.794 170.558 107.375C150.885 108.509 131.211 110.095 111.537 113.166C131.211 116.234 150.885 117.823 170.558 118.957C175.507 119.227 180.455 119.429 185.404 119.625C174.671 126.529 162.887 131.754 150.574 134.91L145.51 135.97C143.823 136.329 142.128 136.728 140.526 136.87C137.271 137.378 134.056 137.566 130.888 137.598C124.562 137.582 118.521 136.416 113.315 134.024C108.101 131.642 103.727 128.063 100.38 123.511C97.0334 118.961 94.704 113.459 93.345 107.494L92.8151 105.264L92.4995 102.942C92.2898 101.374 92.0378 99.9585 91.88 98.0397L90.8108 87.2136L88.6439 65.5706C88.3165 61.9413 87.7654 58.4196 87.65 54.685C87.3508 50.6023 86.7762 46.4165 85.8764 42.2858C84.0558 34.0242 81.001 25.6986 75.6027 17.9728C72.9153 14.1237 69.5119 10.4669 65.3619 7.35966C55.9643 0.320871 46.2605 -1.00714 36.6204 0.627766C22.2202 3.06867 14.5066 18.5269 21.3652 31.0772L31.8792 25.6505C36.8889 23.0653 41.5523 22.3074 45.3326 23.1958C49.1269 24.0133 52.9543 26.7198 56.1056 31.1048C59.2405 35.4622 61.5416 41.1065 62.9006 47.1057C63.5884 50.1237 64.05 53.1966 64.3185 56.4068C64.4598 59.9881 65.0604 63.7113 65.4255 67.3612L68.0446 89.3476L69.3683 100.336C69.5426 102.063 69.9194 104.254 70.2491 106.304L70.7649 109.406L71.5492 112.509C73.6101 120.75 77.209 129.018 82.8758 136.197C88.4766 143.389 96.1761 149.28 104.716 152.823C113.259 156.42 122.405 157.746 131.096 157.521C135.439 157.361 139.739 156.981 143.889 156.168C146.028 155.864 147.973 155.342 149.945 154.847L155.857 153.363C171.444 148.761 186.035 141.374 198.852 131.883C211.573 122.25 222.41 110.462 230.964 97.3619C239.365 84.159 245.466 69.6555 248.923 54.6094L248.992 54.3163C249.114 53.7645 249.166 53.1874 249.14 52.5921C248.987 49.1116 245.871 46.428 242.286 46.2791Z" fill="url(#paint2_linear_72_4793)"/>
<path d="M10.8861 209.752C10.8861 209.752 139.527 176.837 284 206.002C284 206.002 142.495 191.001 0 246C0 246 2.96996 221.419 10.8861 209.752Z" fill="url(#paint3_linear_72_4793)"/>
<defs>
<linearGradient id="paint0_linear_72_4793" x1="87.7556" y1="152.155" x2="87.7556" y2="193.946" gradientUnits="userSpaceOnUse">
<stop stop-color="#FEBA2B"/>
<stop offset="1" stop-color="#C85B19"/>
</linearGradient>
<linearGradient id="paint1_linear_72_4793" x1="180.958" y1="152.155" x2="180.958" y2="193.946" gradientUnits="userSpaceOnUse">
<stop stop-color="#FEBA2B"/>
<stop offset="1" stop-color="#C85B19"/>
</linearGradient>
<linearGradient id="paint2_linear_72_4793" x1="133.988" y1="0" x2="133.988" y2="157.545" gradientUnits="userSpaceOnUse">
<stop stop-color="#E88029"/>
<stop offset="1" stop-color="#FA4206"/>
</linearGradient>
<linearGradient id="paint3_linear_72_4793" x1="142" y1="193.945" x2="142" y2="246" gradientUnits="userSpaceOnUse">
<stop stop-color="#E88029"/>
<stop offset="1" stop-color="#FA4206"/>
</linearGradient>
</defs>
</svg>
