<svg width="561" height="485" viewBox="0 0 561 485" fill="none" xmlns="http://www.w3.org/2000/svg">
<path d="M67.2416 483.633C67.2416 483.633 3.99049 376.817 56.1281 316.669C96.4097 270.2 -3.6648 198.62 153.84 118.094C303.714 41.4695 412.357 96.6081 460.287 194.989C517.289 311.99 502.468 407.356 442.878 483.633C299.286 483.633 67.2416 483.633 67.2416 483.633Z" fill="#E0E7E1"/>
<path d="M218.476 102.869C221.146 96.7609 222.824 90.3192 223.525 83.7979L237.908 79.0525L236.739 68.0065L235.57 56.9606L220.568 55.8532C218.522 49.6725 215.542 43.8069 211.665 38.5093L218.733 24.1549L210.683 17.2386L202.634 10.3223L191.3 21.0114C185.651 18.1245 179.694 16.3102 173.664 15.5521L169.276 0L159.061 1.26461L148.847 2.52921L147.821 18.7516C142.106 20.9638 136.681 24.1872 131.782 28.3797L118.508 20.7373L112.111 29.4421L105.715 38.1469L115.599 50.4026C112.929 56.5107 111.252 62.9528 110.55 69.4737L96.168 74.2192L97.3369 85.2651L98.5058 96.3111L113.507 97.4188C115.553 103.6 118.533 109.465 122.41 114.763L115.342 129.117L123.392 136.033L131.441 142.95L142.775 132.261C148.424 135.147 154.381 136.962 160.411 137.72L164.799 153.272L175.014 152.007L185.229 150.743L186.254 134.52C191.97 132.308 197.394 129.085 202.294 124.892L215.568 132.534L221.964 123.83L228.36 115.125L218.476 102.869ZM159.9 117.626C138.965 113.365 125.189 91.558 129.131 68.9197C133.073 46.2813 153.24 31.3838 174.175 35.6456C195.11 39.9071 208.886 61.714 204.943 84.3524C201.002 106.991 180.835 121.888 159.9 117.626Z" fill="#B7BEB8"/>
<path d="M451.576 163.101C449.494 156.899 446.516 151.211 442.815 146.201L449.661 132.152L441.772 125.433L433.884 118.715L422.858 129.205C417.487 126.49 411.675 124.692 405.611 123.957L401.264 108.786L391.293 110.068L381.322 111.349L380.385 127.2C374.649 129.451 369.389 132.672 364.756 136.673L351.764 129.271L345.551 137.801L339.339 146.332L349.039 158.255C346.527 164.063 344.865 170.347 344.186 176.904L330.156 181.605L331.342 192.388L332.527 203.171L347.184 204.184C349.266 210.387 352.245 216.075 355.945 221.085L349.099 235.134L356.988 241.853L364.877 248.571L375.902 238.082C381.273 240.797 387.085 242.595 393.149 243.329L397.496 258.501L407.467 257.219L417.439 255.937L418.376 240.087C424.112 237.836 429.371 234.615 434.004 230.614L446.997 238.016L453.209 229.486L459.422 220.955L449.722 209.032C452.233 203.224 453.895 196.939 454.575 190.382L468.604 185.681L467.419 174.898L466.234 164.116L451.576 163.101ZM403.826 224.095C383.166 226.751 364.427 210.792 361.972 188.451C359.516 166.109 374.274 145.846 394.934 143.19C415.594 140.535 434.333 156.493 436.788 178.835C439.244 201.176 424.486 221.439 403.826 224.095Z" fill="#B7BEB8"/>
<path d="M370.434 102.984C370.434 102.984 389.147 69.5268 434.042 78.2026C434.042 78.2026 403.819 126.672 370.434 102.984Z" fill="#EA781F"/>
<path d="M341.211 111.806C341.211 111.806 346.785 44.74 422.32 21.4746C422.32 21.4746 409.426 121.177 341.211 111.806Z" fill="#FAA853"/>
<path d="M381.638 468.088H192.839C189.236 468.088 186.316 464.93 186.316 461.035V42.9011C186.316 38.4345 189.665 34.8135 193.796 34.8135H380.681C384.812 34.8135 388.16 38.4345 388.16 42.9011V461.036C388.16 464.93 385.24 468.088 381.638 468.088Z" fill="#49809E"/>
<path d="M379.723 34.8135H194.754C190.094 34.8135 186.316 38.8981 186.316 43.9373V65.8034H388.16V43.9373C388.16 38.8985 384.383 34.8135 379.723 34.8135Z" fill="#3F64A0"/>
<path d="M375.993 25.7783H198.485C187.06 25.7783 177.799 35.7935 177.799 48.1473V459.903C177.799 472.257 187.06 482.272 198.485 482.272H375.993C387.418 482.272 396.679 472.257 396.679 459.903V48.1476C396.679 35.7935 387.417 25.7783 375.993 25.7783ZM388.161 455.939C388.161 462.65 383.13 468.091 376.924 468.091H197.554C191.348 468.091 186.317 462.65 186.317 455.939V48.3735C186.317 40.8861 191.93 34.8165 198.854 34.8165H375.624C382.548 34.8165 388.161 40.8861 388.161 48.3735L388.161 455.939Z" fill="#3F2A49"/>
<path d="M199.688 53.4922C201.227 53.4922 202.474 52.1435 202.474 50.4798C202.474 48.816 201.227 47.4673 199.688 47.4673C198.15 47.4673 196.902 48.816 196.902 50.4798C196.902 52.1435 198.15 53.4922 199.688 53.4922Z" fill="white"/>
<path d="M208.308 53.4922C209.846 53.4922 211.094 52.1435 211.094 50.4798C211.094 48.816 209.846 47.4673 208.308 47.4673C206.769 47.4673 205.521 48.816 205.521 50.4798C205.521 52.1435 206.769 53.4922 208.308 53.4922Z" fill="white"/>
<path d="M216.927 53.4922C218.465 53.4922 219.713 52.1435 219.713 50.4798C219.713 48.816 218.465 47.4673 216.927 47.4673C215.388 47.4673 214.141 48.816 214.141 50.4798C214.141 52.1435 215.388 53.4922 216.927 53.4922Z" fill="white"/>
<path d="M351.619 45.0557V47.2051H350.494V50.8958H351.619V53.4911H373.521V45.0557H351.619ZM372.771 52.8016H352.369V45.7451H372.771V52.8016Z" fill="white"/>
<path d="M371.529 46.8477H369.365V51.6701H371.529V46.8477Z" fill="white"/>
<path d="M367.9 46.8477H365.736V51.6701H367.9V46.8477Z" fill="white"/>
<path d="M364.172 46.8477H362.008V51.6701H364.172V46.8477Z" fill="white"/>
<path d="M561 482.268H0V485H561V482.268Z" fill="#3F2A49"/>
<path d="M534.168 482.879H536.688L531.158 385.017H524.928L534.168 482.879Z" fill="#4C222E"/>
<path d="M446.169 482.879H443.648L449.179 385.017H455.409L446.169 482.879Z" fill="#4C222E"/>
<path d="M554.384 248.177H500.124L471.42 386.362L533.598 379.195L554.384 248.177Z" fill="#49809E"/>
<path d="M429.837 370.337C429.837 370.337 501.404 372.291 522.684 372.291C526.119 372.291 529.063 369.581 529.686 365.847L548.607 252.577C549.115 249.534 551.805 247.545 554.561 248.221C557.186 248.864 558.826 251.774 558.338 254.698L536.903 383.016C536.737 384.011 536.334 384.889 535.776 385.602C534.397 388.435 531.69 390.362 528.576 390.362H430.095C425.582 390.362 421.924 386.316 421.924 381.326C421.924 376.335 425.324 370.337 429.837 370.337Z" fill="#3F64A0"/>
<path d="M522.685 372.729C526.311 372.729 529.421 369.867 530.079 365.924L549 252.654C549.227 251.296 549.925 250.128 550.967 249.365C552.008 248.603 553.253 248.348 554.476 248.648C554.69 248.701 554.904 248.551 554.951 248.313C554.999 248.075 554.863 247.84 554.649 247.787C553.213 247.435 551.749 247.735 550.527 248.631C549.303 249.526 548.483 250.898 548.217 252.494L529.296 365.764C528.707 369.289 525.927 371.848 522.686 371.848C522.465 371.848 522.287 372.045 522.287 372.288C522.287 372.531 522.465 372.729 522.685 372.729Z" fill="#3F2A49"/>
<path d="M487.238 390.88H487.239L525.866 390.803C536.271 391.84 537.509 381.995 537.568 381.455L539.865 367.707C539.905 367.468 539.762 367.238 539.546 367.194C539.328 367.15 539.122 367.308 539.081 367.547L536.778 381.345C536.742 381.736 535.782 390.919 525.919 389.924L525.882 389.923L487.237 389.999C487.018 390 486.839 390.197 486.84 390.441C486.841 390.683 487.019 390.88 487.238 390.88Z" fill="#3F2A49"/>
<path d="M533.481 248.62H533.482L552.469 248.589C552.69 248.589 552.868 248.391 552.867 248.148C552.867 247.905 552.689 247.708 552.469 247.708H552.468L533.48 247.739C533.26 247.739 533.082 247.936 533.082 248.18C533.083 248.423 533.261 248.62 533.481 248.62Z" fill="#3F2A49"/>
<path d="M510.743 293.352L504.533 296.255L497.627 299.796C497.627 299.796 486.901 301.809 486.746 301.772C486.724 301.767 487.638 303.498 487.638 303.498C474.33 305.274 432.387 307.136 425.501 307.967C421.35 308.468 417.361 314.049 414.846 318.404L418.255 320.898C418.255 320.898 454.884 319.152 454.81 319.984C454.787 320.247 453.754 324.178 452.148 329.323C474.771 330.958 506.453 330.801 512.336 320.72C517.163 312.45 512.457 300.578 510.743 293.352Z" fill="#FE9F73"/>
<path d="M369.438 470.071L397.271 470.481L397.67 442.345L369.946 438.633L369.438 470.071Z" fill="#FE9F73"/>
<path d="M455.009 370.793C455.009 370.793 478.969 371.218 495.762 370.597C501.153 370.397 505.95 370.808 508.79 370.126C520.479 367.319 523.358 327.865 510.086 303.693C496.813 279.521 450.377 353.737 450.377 353.737L455.009 370.793Z" fill="#4E3658"/>
<path d="M411.65 471.131L439.484 471.541L439.883 443.405L412.159 439.692L411.65 471.131Z" fill="#FE9F73"/>
<path d="M429.211 317.997C429.211 317.997 370.356 322.064 368.656 329.413C366.957 336.763 362.089 414.898 365.729 448.233C365.729 448.233 388.06 449.895 398.74 447.095L401.339 365.815L418.967 363.628L459.349 311.133L429.211 317.997Z" fill="#3F2A49"/>
<path d="M457.488 316.798C457.488 316.798 412.098 330.647 410.399 337.997C408.7 345.346 403.864 415.077 407.505 448.411C407.505 448.411 431.516 449.899 442.196 447.099L445.074 370.426L455.432 370.817L480.547 323.036L457.488 316.798Z" fill="#4E3658"/>
<path d="M427.787 449.314C438.397 449.314 442.181 447.586 442.36 447.501L442.595 447.389L445.381 370.266L440.996 372.502L441.346 373.303L444.51 371.689L441.797 446.783C440.649 447.212 435.146 448.929 422.149 448.28L422.111 449.165C424.189 449.269 426.077 449.314 427.787 449.314Z" fill="#3F2A49"/>
<path d="M437.738 432.684C438.871 427.961 439.195 381.891 439.208 379.932L438.389 379.926C438.385 380.404 438.052 427.844 436.945 432.462L437.738 432.684Z" fill="#3F2A49"/>
<path d="M395.557 367.554C400.939 365.672 408.347 365.389 408.421 365.386L408.394 364.501C408.319 364.504 400.798 364.79 395.305 366.712L395.557 367.554Z" fill="#3F2A49"/>
<path d="M383.446 449.146C392.512 449.146 398.772 447.539 398.836 447.522L399.138 447.443L401.767 365.258L398.411 368.179L398.925 368.869L400.886 367.161L398.341 446.734C396.953 447.058 390.903 448.35 382.653 448.256L382.645 449.141C382.914 449.145 383.181 449.146 383.446 449.146Z" fill="#3F2A49"/>
<path d="M394.864 434.397C395.99 427.262 394.916 378.969 394.87 376.917L394.051 376.938C394.062 377.441 395.17 427.198 394.056 434.248L394.864 434.397Z" fill="#3F2A49"/>
<path d="M473.038 371.62C483.492 371.62 496.026 371.237 510.117 370.09L510.055 369.21C468.072 372.631 439.917 369.246 439.638 369.212L439.545 370.088C439.731 370.111 452.281 371.62 473.038 371.62Z" fill="#3F2A49"/>
<path d="M458.667 292.048C457.856 292.033 425.252 307.196 425.252 307.196L431.823 320.792L450.12 316.449L458.667 292.048Z" fill="#EA781F"/>
<path d="M505.906 228.86C505.906 228.86 519.77 228.335 526.388 232.389C536.265 238.44 532.746 273.092 532.746 273.092C532.746 273.092 524.354 268.142 523.845 266.492C523.336 264.842 505.906 228.86 505.906 228.86Z" fill="#EA781F"/>
<path d="M509.27 304.078C509.253 304.085 509.237 304.09 509.219 304.095L499.019 306.619C498.814 306.669 498.609 306.531 498.562 306.309C498.515 306.087 498.643 305.866 498.849 305.815L509.049 303.291C509.254 303.24 509.459 303.379 509.506 303.601C509.549 303.804 509.445 304.007 509.27 304.078Z" fill="#3F2A49"/>
<path d="M514.6 297.521L508.391 300.425L501.484 303.966C501.484 303.966 490.759 305.979 490.604 305.942C490.581 305.937 491.495 307.668 491.495 307.668C478.187 309.444 436.244 311.306 429.358 312.137C425.207 312.638 421.218 318.219 418.703 322.574L422.112 325.068C422.112 325.068 458.741 323.322 458.667 324.154C458.644 324.417 457.611 328.348 456.006 333.493C478.629 335.128 510.311 334.971 516.194 324.89C521.021 316.619 516.315 304.748 514.6 297.521Z" fill="#F9B59D"/>
<path d="M519.327 231.566C511.447 230.386 490.656 229.572 490.656 229.572C490.656 229.572 487.902 230.354 488.779 229.914C465.819 234.297 463.281 252.709 463.281 252.709L452.074 305.908L439.602 306.638C435.565 314.908 438.53 337.214 438.53 337.214L498.938 344.576C498.938 344.576 511.995 346.904 523.039 331.589C530.345 321.457 532.83 290.35 532.827 267.622C532.827 267.622 531.572 233.4 519.327 231.566Z" fill="#EA781F"/>
<path d="M349.395 272.493H406.911L426.97 327.732H369.454L349.395 272.493Z" fill="#FCFCFE"/>
<path d="M427.701 327.998H424.7L404.641 272.759H407.642L427.701 327.998Z" fill="#B7BEB8"/>
<path d="M387.727 298.619C388.524 301.156 387.94 303.665 386.422 304.223C384.904 304.781 383.027 303.176 382.23 300.638C381.433 298.1 382.016 295.591 383.535 295.033C385.053 294.476 386.929 296.081 387.727 298.619Z" fill="#B7BEB8"/>
<path d="M446.714 323.533H425.227V327.994H446.714C447.853 327.994 448.776 326.996 448.776 325.764C448.776 324.532 447.853 323.533 446.714 323.533Z" fill="#B7BEB8"/>
<path d="M441.275 325.067H427.701V325.766H441.275V325.067Z" fill="#FCFCFE"/>
<path d="M499.02 306.83C498.951 306.858 498.875 306.865 498.798 306.845C498.593 306.793 498.466 306.571 498.514 306.349C498.577 306.058 504.891 277.037 507.577 258.775C507.611 258.549 507.807 258.396 508.014 258.432C508.222 258.468 508.364 258.679 508.331 258.904C505.64 277.197 499.32 306.247 499.257 306.538C499.226 306.677 499.135 306.783 499.02 306.83Z" fill="#3F2A49"/>
<path d="M459.948 306.347C459.87 306.378 459.783 306.383 459.699 306.354C459.497 306.286 459.386 306.054 459.449 305.837C459.544 305.513 468.91 273.376 470.867 262.265C470.906 262.041 471.107 261.895 471.313 261.937C471.52 261.979 471.656 262.195 471.616 262.419C469.651 273.577 460.271 305.761 460.177 306.085C460.14 306.21 460.053 306.304 459.948 306.347Z" fill="#3F2A49"/>
<path d="M498.026 245.16C497.731 245.193 497.431 245.221 497.124 245.245C496.95 245.258 496.798 245.115 496.786 244.926C496.774 244.738 496.9 244.575 497.08 244.561C510.218 243.563 512.658 233.162 512.676 233.058C512.709 232.876 512.87 232.748 513.041 232.78C513.211 232.811 513.328 232.979 513.303 233.163C513.289 233.27 510.864 243.724 498.026 245.16Z" fill="#3F2A49"/>
<path d="M457.267 298.683C457.096 298.753 456.898 298.681 456.803 298.505L454.242 293.76L454.276 293.601L462.907 252.634C462.96 252.264 463.708 247.49 467.451 242.226C470.959 237.291 477.879 231.015 490.915 229.139C491.124 229.109 491.315 229.268 491.343 229.494C491.371 229.72 491.224 229.927 491.015 229.957C478.261 231.792 471.504 237.895 468.082 242.692C464.373 247.89 463.666 252.724 463.659 252.772L463.654 252.802L455.053 293.625L457.462 298.089C457.569 298.286 457.507 298.538 457.325 298.653C457.306 298.665 457.287 298.675 457.267 298.683Z" fill="#3F2A49"/>
<path d="M443.758 298.836C443.564 298.915 443.346 298.813 443.269 298.603C443.191 298.391 443.287 298.151 443.482 298.067L454.505 293.313C454.707 293.237 454.922 293.331 455 293.543C455.078 293.755 454.983 293.995 454.787 294.079L443.765 298.833C443.763 298.834 443.761 298.835 443.758 298.836Z" fill="#3F2A49"/>
<path d="M439.603 306.639C439.603 306.639 435.616 316.812 438.531 337.215L453.108 328.757L448.778 313.515L439.603 306.639Z" fill="#EA781F"/>
<path d="M512.196 307.189C512.15 307.208 512.101 307.217 512.049 307.216C511.504 307.197 457.53 305.446 439.87 307.021C439.436 308.275 437.443 314.752 438.002 326.601C438.012 326.829 437.852 327.023 437.64 327.035C437.43 327.046 437.25 326.871 437.24 326.644C436.608 313.216 439.145 306.736 439.253 306.467L439.344 306.241L439.57 306.22C457.024 304.604 511.524 306.373 512.073 306.391C512.284 306.398 512.449 306.588 512.443 306.816C512.438 306.988 512.336 307.132 512.196 307.189Z" fill="#3F2A49"/>
<path d="M487.519 198.63L487.089 216.582C487.089 216.582 486.728 222.347 491.38 223.199L490.324 230.875C489.931 233.728 491.448 236.512 493.969 237.454C495.201 237.915 496.678 238.267 498.361 238.314C503.697 238.464 506.692 234.217 507.189 232.065C507.685 229.914 506.599 219.536 506.599 219.536L506.883 214.46L506.749 194.756L487.519 198.63Z" fill="#FE9F73"/>
<path d="M502.324 218.597C502.324 218.597 501.78 228.248 490.602 228.857L491.381 223.196C491.381 223.196 498.578 224.971 502.324 218.597Z" fill="#F07162"/>
<path d="M500.178 208.403C500.233 208.404 500.29 208.383 500.334 208.34C500.424 208.251 500.431 208.098 500.348 208C500.318 207.965 497.341 204.496 494.488 206.853C494.39 206.933 494.372 207.084 494.446 207.19C494.521 207.296 494.66 207.316 494.758 207.235C497.286 205.147 499.909 208.194 500.02 208.324C500.062 208.375 500.12 208.401 500.178 208.403Z" fill="#4E3658"/>
<path d="M507.904 206.1L503.078 207.046L502.188 207.994C502.188 207.994 502.812 199.305 503.757 197.62C504.702 195.934 507.904 206.1 507.904 206.1Z" fill="#4E3658"/>
<path d="M491.047 206.7C491.109 206.702 491.172 206.675 491.217 206.621C491.3 206.523 491.293 206.372 491.203 206.282C491.115 206.195 489.041 204.174 487.67 205.38C487.575 205.464 487.56 205.615 487.638 205.718C487.715 205.822 487.855 205.837 487.951 205.753C489.025 204.808 490.884 206.619 490.903 206.637C490.944 206.678 490.995 206.698 491.047 206.7Z" fill="#4E3658"/>
<path d="M495.658 209.256C495.649 209.655 495.94 209.986 496.308 209.996C496.677 210.006 496.983 209.692 496.992 209.294C497.002 208.895 496.711 208.564 496.343 208.553C495.974 208.544 495.668 208.858 495.658 209.256Z" fill="black"/>
<path d="M488.584 208.336C488.574 208.734 488.866 209.066 489.234 209.076C489.602 209.086 489.909 208.772 489.918 208.373C489.928 207.975 489.637 207.644 489.269 207.634C488.9 207.623 488.594 207.938 488.584 208.336Z" fill="black"/>
<path d="M501.173 209.157C501.116 211.548 502.862 213.536 505.072 213.597C507.282 213.66 509.121 211.772 509.178 209.381C509.235 206.991 507.49 205.003 505.28 204.941C503.069 204.879 501.231 206.766 501.173 209.157Z" fill="#FE9F73"/>
<path d="M505.819 211.688C506.65 211.712 507.222 211.052 507.421 210.381C507.656 209.588 507.427 208.806 506.837 208.386C505.965 207.766 505.152 208.125 504.733 208.407C504.918 207.92 505.197 207.57 505.567 207.363C506.367 206.916 507.337 207.285 507.346 207.289C507.404 207.312 507.468 207.28 507.489 207.217C507.51 207.155 507.48 207.086 507.422 207.063C507.379 207.046 506.354 206.654 505.467 207.149C504.955 207.435 504.598 207.956 504.408 208.697L504.301 209.113L504.591 208.817C504.632 208.775 505.608 207.801 506.715 208.587C507.328 209.023 507.364 209.787 507.209 210.308C507.048 210.85 506.59 211.47 505.826 211.449C505.818 211.448 505.811 211.448 505.803 211.448C505.742 211.446 505.691 211.497 505.689 211.564C505.687 211.63 505.734 211.686 505.796 211.688C505.803 211.688 505.811 211.688 505.819 211.688Z" fill="#F07162"/>
<path d="M493.188 214.055C493.235 214.057 493.279 214.026 493.295 213.976C493.316 213.913 493.286 213.844 493.228 213.822L491.019 212.962L491.859 207.31C491.869 207.245 491.827 207.183 491.767 207.172C491.706 207.16 491.649 207.207 491.639 207.272L490.77 213.121L493.153 214.048C493.164 214.053 493.176 214.055 493.188 214.055Z" fill="#F07162"/>
<path d="M494.859 216.434C494.791 216.418 490.459 216.187 490.459 216.187C490.459 216.187 490.957 218.14 492.566 218.231C494.176 218.321 494.859 216.434 494.859 216.434Z" fill="#FBFDFC"/>
<path d="M507.902 206.101C507.902 206.101 509.456 197.711 507.145 194.503C504.834 191.294 491.271 185.413 489.573 186.936C487.875 188.461 489.489 190.415 489.489 190.415C489.489 190.415 484.036 188.353 482.665 193.591C481.293 198.829 493.067 201.406 500.182 199.135C500.182 199.135 504.812 200.738 507.902 206.101Z" fill="#4E3658"/>
<path d="M509.462 343.347C508.566 343.713 507.723 343.999 506.945 344.222C502.275 345.562 499.013 345.005 498.876 344.981C498.668 344.944 498.528 344.732 498.562 344.507C498.596 344.283 498.792 344.131 499 344.167C499.032 344.173 502.268 344.719 506.789 343.413C510.959 342.211 517.111 339.136 522.738 331.333C529.802 321.537 532.382 291.378 532.445 268.528C532.445 268.3 532.617 268.116 532.827 268.117C533.038 268.117 533.209 268.303 533.208 268.53C533.144 291.511 530.522 321.88 523.34 331.84C518.614 338.394 513.513 341.691 509.462 343.347Z" fill="#3F2A49"/>
<path d="M397.531 476.353H373.49L363.742 464.871L345.914 476.353H342.074C340.75 476.353 339.538 477.32 339.288 478.725C338.953 480.616 340.284 482.27 341.972 482.27H397.874C398.284 482.27 398.618 481.91 398.618 481.466V477.528C398.618 476.879 398.131 476.353 397.531 476.353Z" fill="#DD6514"/>
<path d="M397.319 476.385V465.713C397.319 465.713 393.27 459.819 387.106 462.827C387.106 462.827 377.781 469.981 369.562 461.324L349.149 471.115C349.149 471.115 343.553 473.138 342.037 476.385H397.319Z" fill="#F6F6FE"/>
<path d="M397.523 465.717H397.113V476.336H397.523V465.717Z" fill="black"/>
<path d="M378.748 465.829C377.966 465.829 377.496 465.756 377.48 465.754L377.541 465.316C377.589 465.323 382.407 466.054 386.989 462.645L387.221 463.009C383.938 465.452 380.533 465.829 378.748 465.829Z" fill="black"/>
<path d="M394.725 472.146L392.115 474.044L392.344 474.411L394.953 472.513L394.725 472.146Z" fill="black"/>
<path d="M392.857 471.575L390.25 473.476L390.479 473.842L393.086 471.941L392.857 471.575Z" fill="black"/>
<path d="M340.07 481.757C339.41 481.152 339.031 480.268 339.031 479.332C339.031 477.579 340.351 476.152 341.972 476.152H397.246C398.115 476.152 398.822 476.917 398.822 477.857V480.807H398.413V477.857C398.413 477.161 397.889 476.595 397.246 476.595H341.972C340.576 476.595 339.441 477.822 339.441 479.332C339.441 480.137 339.766 480.899 340.335 481.42L340.07 481.757Z" fill="black"/>
<path d="M342.157 476.462L341.787 476.273C341.833 476.169 342.953 473.687 347.131 471.76C351.237 469.867 369.295 461.206 369.477 461.118L369.644 461.523C369.461 461.61 351.4 470.272 347.291 472.167C343.271 474.022 342.168 476.438 342.157 476.462Z" fill="black"/>
<path d="M440.254 476.353H416.212L406.464 464.871L388.636 476.353H384.796C383.473 476.353 382.26 477.32 382.011 478.725C381.676 480.616 383.007 482.27 384.695 482.27H440.596C441.007 482.27 441.34 481.91 441.34 481.466V477.528C441.34 476.879 440.854 476.353 440.254 476.353Z" fill="#EA781F"/>
<path d="M440.04 476.385V465.713C440.04 465.713 435.991 459.819 429.826 462.827C429.826 462.827 420.502 469.981 412.282 461.324L391.87 471.115C391.87 471.115 386.273 473.138 384.758 476.385H440.04Z" fill="#FCFCFE"/>
<path d="M440.245 465.713H439.836V476.332H440.245V465.713Z" fill="black"/>
<path d="M421.47 465.829C420.689 465.829 420.218 465.756 420.203 465.754L420.264 465.316C420.312 465.323 425.13 466.054 429.712 462.645L429.943 463.009C426.66 465.452 423.256 465.829 421.47 465.829Z" fill="black"/>
<path d="M437.447 472.146L434.838 474.044L435.067 474.411L437.676 472.513L437.447 472.146Z" fill="black"/>
<path d="M435.58 471.575L432.973 473.476L433.201 473.842L435.809 471.941L435.58 471.575Z" fill="black"/>
<path d="M382.793 481.757C382.133 481.152 381.754 480.268 381.754 479.332C381.754 477.579 383.073 476.152 384.695 476.152H439.968C440.838 476.152 441.545 476.917 441.545 477.857V480.807H441.135V477.857C441.135 477.161 440.612 476.595 439.968 476.595H384.695C383.299 476.595 382.163 477.822 382.163 479.332C382.163 480.137 382.489 480.899 383.057 481.42L382.793 481.757Z" fill="black"/>
<path d="M384.88 476.462L384.51 476.273C384.555 476.169 385.675 473.687 389.853 471.76C393.959 469.867 412.018 461.206 412.2 461.118L412.366 461.523C412.184 461.61 394.122 470.272 390.014 472.167C385.994 474.022 384.891 476.438 384.88 476.462Z" fill="black"/>
<path d="M320.645 340.144H253.834C237.559 340.144 224.365 325.878 224.365 308.28V236.943C224.365 228.213 230.91 221.136 238.984 221.136H335.495C343.569 221.136 350.114 228.213 350.114 236.943V308.28C350.113 325.878 336.92 340.144 320.645 340.144Z" fill="#4E3658"/>
<path d="M326.342 213.477C326.597 215.434 326.731 217.432 326.731 219.465C326.731 243.017 309.074 262.11 287.292 262.11C265.511 262.11 247.853 243.017 247.853 219.465C247.853 195.913 265.511 176.821 287.292 176.821C300.136 176.821 311.544 183.461 318.745 193.738L328.223 184.007C318.61 171.051 303.848 162.753 287.292 162.753C258.326 162.753 234.844 188.144 234.844 219.465C234.844 250.786 258.326 276.177 287.292 276.177C316.259 276.177 339.741 250.786 339.741 219.465C339.741 216.719 339.557 214.019 339.208 211.377L326.342 213.477Z" fill="#4E3658"/>
<path d="M265.218 340.706H253.833C237.298 340.706 223.846 326.161 223.846 308.281V236.944C223.846 236.634 224.078 236.382 224.365 236.382C224.652 236.382 224.885 236.634 224.885 236.944V308.281C224.885 325.541 237.871 339.583 253.833 339.583H265.219C265.505 339.583 265.738 339.835 265.738 340.145C265.738 340.455 265.505 340.706 265.218 340.706Z" fill="#3F2A49"/>
<path d="M350.114 241.707C349.827 241.707 349.595 241.456 349.595 241.145V236.943C349.595 228.536 343.269 221.697 335.495 221.697H306.072C305.785 221.697 305.553 221.445 305.553 221.135C305.553 220.825 305.785 220.574 306.072 220.574H335.495C343.842 220.574 350.633 227.917 350.633 236.942V241.145C350.633 241.455 350.401 241.707 350.114 241.707Z" fill="#3F2A49"/>
<path d="M339.739 220.027C339.452 220.027 339.22 219.776 339.22 219.465C339.22 216.992 339.066 214.489 338.763 212.018L326.417 214.032C326.135 214.078 325.869 213.867 325.826 213.56C325.784 213.254 325.979 212.968 326.262 212.921L339.645 210.738L339.719 211.298C340.077 214.004 340.258 216.752 340.258 219.466C340.258 219.776 340.026 220.027 339.739 220.027Z" fill="#3F2A49"/>
<path d="M234.842 220.028C234.555 220.028 234.322 219.776 234.322 219.466C234.322 187.886 258.084 162.193 287.29 162.193C303.44 162.193 318.506 170.016 328.626 183.656L328.925 184.059L318.68 194.578L318.329 194.077C310.895 183.467 299.582 177.383 287.29 177.383C287.003 177.383 286.771 177.131 286.771 176.821C286.771 176.511 287.003 176.259 287.29 176.259C299.716 176.259 311.169 182.317 318.804 192.901L327.516 183.957C317.597 170.833 302.963 163.315 287.291 163.315C258.657 163.315 235.361 188.504 235.361 219.466C235.361 219.776 235.129 220.028 234.842 220.028Z" fill="#3F2A49"/>
<path d="M297.777 270.841C297.777 264.548 293.059 259.447 287.239 259.447C281.419 259.447 276.701 264.548 276.701 270.841C276.701 275.49 279.277 279.486 282.969 281.258V297.218C282.969 299.767 284.881 301.834 287.24 301.834C289.598 301.834 291.509 299.767 291.509 297.218V281.258C295.201 279.486 297.777 275.49 297.777 270.841Z" fill="#49809E"/>
<path d="M287.239 302.396C284.598 302.396 282.45 300.073 282.45 297.217V281.617C278.631 279.631 276.182 275.441 276.182 270.841C276.182 264.249 281.142 258.885 287.239 258.885C293.336 258.885 298.296 264.249 298.296 270.841C298.296 271.151 298.064 271.403 297.777 271.403C297.49 271.403 297.257 271.151 297.257 270.841C297.257 264.868 292.763 260.008 287.239 260.008C281.714 260.008 277.22 264.868 277.22 270.841C277.22 275.12 279.559 279.007 283.179 280.744L283.488 280.893V297.217C283.488 299.454 285.17 301.273 287.238 301.273C287.525 301.273 287.758 301.524 287.758 301.834C287.759 302.144 287.526 302.396 287.239 302.396Z" fill="#3F2A49"/>
<path d="M91.7584 475.309L69.4332 475.64L69.1133 452.874L91.3505 449.87L91.7584 475.309Z" fill="#FE9F73"/>
<path d="M114.697 479.408H69.1133V469.491C69.1133 469.491 72.4288 464.73 77.4774 467.16C77.4774 467.16 84.951 473.012 91.6821 466.02L108.56 473.855C108.56 473.855 114.697 476.037 114.697 479.408Z" fill="#3F2A49"/>
<path d="M69.1133 482.88H116.002C116.375 482.88 116.676 482.553 116.676 482.15V480.138C116.676 479.735 116.375 479.408 116.002 479.408H69.1133V482.88Z" fill="#B7BEB8"/>
<path d="M96.6762 468.338C95.147 470.92 92.0762 476.108 90.1226 479.408H87.0156C88.7604 476.46 92.4188 470.279 94.2387 467.207L96.6762 468.338Z" fill="#B7BEB8"/>
<path d="M95.1071 479.41H92C93.4197 477.012 96.1879 472.334 98.1486 469.023L100.586 470.155C98.9391 472.936 96.6574 476.791 95.1071 479.41Z" fill="#B7BEB8"/>
<path d="M53.3206 475.315L30.9954 475.647L30.6758 452.881L52.9129 449.877L53.3206 475.315Z" fill="#FE9F73"/>
<path d="M55.6996 278.24C56.4383 301.75 59.6541 393.716 66.4141 453.885C66.8597 457.852 69.9685 460.844 73.6632 460.833C77.7537 460.822 83.4432 460.294 89.748 458.213C92.7952 457.207 94.9107 454.21 94.9624 450.765L97.7112 267.683C97.7179 267.239 97.6897 266.794 97.6272 266.354L97.4986 265.45C96.7901 260.466 92.0055 257.464 87.6523 259.272L60.3844 270.598C57.4748 271.807 55.5938 274.871 55.6996 278.24Z" fill="#DD6514"/>
<path d="M25.717 273.499C25.717 273.499 23.8607 386.587 28.7004 456.344C28.9294 459.645 31.3535 462.254 34.4065 462.505C38.7284 462.861 45.3105 462.807 52.7307 460.678C55.2471 459.956 57.0792 457.606 57.3031 454.801L70.2477 292.621L78.2182 247.592L25.717 273.499Z" fill="#EA781F"/>
<path d="M37.7073 462.663C36.8454 441.734 40.5978 310.928 40.6364 309.596L36.6966 309.463C36.5398 314.921 32.8955 441.767 33.7894 462.418C33.9922 462.457 34.1977 462.488 34.4069 462.505C35.3931 462.586 36.5022 462.644 37.7073 462.663Z" fill="#D7E4F7"/>
<path d="M75.5678 460.793C74.9348 435.415 78.5129 310.693 78.5505 309.392L74.6108 309.259C74.4573 314.585 70.9839 435.496 71.6464 460.533C72.2891 460.732 72.9668 460.838 73.6656 460.836C74.2649 460.835 74.9026 460.82 75.5678 460.793Z" fill="#D7E4F7"/>
<path d="M17.3906 237.506C17.8466 242.023 20.3492 309.045 27.3034 314.575C34.2572 320.104 100.799 314.791 102.349 308.257C103.898 301.724 94.867 231.684 94.867 231.684L17.3906 237.506Z" fill="#49809E"/>
<path d="M92.5234 205.932C93.422 205.948 129.008 224.074 129.008 224.074L121.254 238.865L101.139 233.307L92.5234 205.932Z" fill="#49809E"/>
<path d="M42.4033 134.016C42.4033 134.016 27.0649 132.869 19.5923 137.09C8.4412 143.388 11.1278 181.913 11.1278 181.913C11.1278 181.913 20.5974 176.772 21.2182 174.965C21.8394 173.158 42.4033 134.016 42.4033 134.016Z" fill="#49809E"/>
<path d="M27.4446 136.462C36.214 135.477 59.2725 135.424 59.2725 135.424C59.2725 135.424 62.2962 136.402 61.3396 135.879C86.6193 141.672 88.7871 162.169 88.7871 162.169L99.3439 221.548L113.133 222.866C117.315 232.191 113.253 256.777 113.253 256.777L46.0821 262.464C46.0821 262.464 31.5375 264.509 19.8394 247.095C12.1008 235.575 10.434 201.02 11.2311 175.846C11.2311 175.846 13.8173 137.993 27.4446 136.462Z" fill="#49809E"/>
<path d="M47.3069 220.658C47.3821 220.692 47.4667 220.703 47.5523 220.685C47.7813 220.635 47.9301 220.394 47.8841 220.147C47.824 219.822 41.8443 187.421 39.5066 167.084C39.4773 166.833 39.2651 166.656 39.0348 166.687C38.8031 166.718 38.6382 166.946 38.6674 167.197C41.0095 187.568 46.9949 220.001 47.055 220.326C47.0836 220.481 47.1816 220.602 47.3069 220.658Z" fill="#3F2A49"/>
<path d="M88.7613 221.42C88.6928 221.486 88.6038 221.528 88.5058 221.534C88.2724 221.549 88.0726 221.356 88.0592 221.104C88.0393 220.729 86.0438 183.448 84.026 171.105C83.9854 170.856 84.1395 170.619 84.3689 170.575C84.5989 170.531 84.8181 170.697 84.8588 170.946C86.8852 183.342 88.8836 220.676 88.9034 221.052C88.9111 221.197 88.855 221.331 88.7613 221.42Z" fill="#3F2A49"/>
<path d="M93.8428 213.342C94.0299 213.426 94.2511 213.355 94.3629 213.164L97.3652 208.012L97.3337 207.835L89.2039 162.107C89.1579 161.696 88.4957 156.377 84.5341 150.394C80.82 144.784 73.3749 137.551 59.0006 134.941C58.7702 134.9 58.5523 135.068 58.5137 135.316C58.4751 135.565 58.6309 135.801 58.8605 135.843C72.925 138.396 80.1961 145.432 83.8193 150.885C87.7456 156.794 88.3601 162.176 88.3658 162.229L88.3708 162.263L96.472 207.83L93.6474 212.676C93.5228 212.889 93.5819 213.172 93.7797 213.306C93.8002 213.32 93.8214 213.332 93.8428 213.342Z" fill="#3F2A49"/>
<path d="M36.0486 217.192C36.0664 217.2 36.0845 217.206 36.1036 217.212L47.3139 220.424C47.5395 220.488 47.7712 220.343 47.831 220.099C47.8908 219.855 47.7571 219.605 47.5305 219.54L36.3202 216.328C36.0946 216.263 35.8629 216.409 35.8031 216.653C35.7487 216.876 35.8568 217.105 36.0486 217.192Z" fill="#3F2A49"/>
<path d="M108.799 214.049C109.011 214.145 109.256 214.04 109.349 213.811C109.443 213.58 109.346 213.31 109.132 213.209L97.0889 207.493C96.867 207.401 96.6255 207.496 96.5318 207.728C96.4381 207.959 96.5352 208.228 96.7491 208.33L108.792 214.046C108.794 214.047 108.797 214.048 108.799 214.049Z" fill="#3F2A49"/>
<path d="M158.713 257.31L119.125 254.496C117.247 254.362 115.664 252.558 115.884 250.8L123.769 187.761C123.929 186.487 125.007 185.652 126.369 185.749L165.957 188.563C167.836 188.696 169.419 190.5 169.199 192.258L161.313 255.297C161.154 256.572 160.076 257.406 158.713 257.31Z" fill="#4E3658"/>
<path d="M139.526 244.088C139.566 242.91 138.626 241.88 137.539 241.802L130.808 241.315C130.597 241.3 130.418 241.141 130.363 240.919C130.282 240.593 130.497 240.268 130.809 240.246L140.772 239.532C141.913 239.45 142.604 238.406 142.307 237.212C142.011 236.017 140.834 235.107 139.692 235.188L129.533 235.916C129.297 235.933 129.083 235.767 129.021 235.52L128.978 235.345C128.907 235.06 129.064 234.766 129.328 234.689L140.22 231.525C141.273 231.22 142.01 230.012 141.759 228.865C141.493 227.649 140.352 226.919 139.244 227.241L128.269 230.428C128.005 230.505 127.734 230.336 127.662 230.05L127.525 229.495C127.46 229.236 127.584 228.964 127.814 228.861L137.553 224.498C138.56 224.047 139.146 222.746 138.759 221.644C138.349 220.476 137.131 219.912 136.071 220.387C136.071 220.387 121.09 226.12 118.646 226.817L123.151 224.541C126.467 227.902 122.724 223.314 119.996 222.72C116.973 222.061 108.989 230.055 108.989 230.055C108.622 230.743 108.999 232.28 109.576 233.437C111.804 246.229 112.244 248.18 113.139 251.57L125.446 247.509C128.997 246.338 132.716 245.875 136.421 246.143L137.351 246.21C138.497 246.293 139.484 245.337 139.526 244.088Z" fill="#FE9F73"/>
<path d="M148.484 210.171C148.473 212.498 146.78 214.452 144.703 214.535C142.625 214.618 140.95 212.798 140.961 210.471C140.972 208.144 142.665 206.19 144.743 206.107C146.82 206.024 148.495 207.844 148.484 210.171Z" fill="#EA781F"/>
<path d="M120.13 221.824L119.57 226.52L124.192 224.852L124.131 221.452L120.13 221.824Z" fill="#4E3658"/>
<path d="M165.959 188.109L126.371 185.295C124.812 185.184 123.545 186.186 123.359 187.677L118.59 226.903L119.572 226.534L124.179 187.855C124.31 186.806 125.21 186.13 126.367 186.212L165.955 189.026C166.183 189.043 166.37 188.85 166.371 188.597C166.372 188.344 166.187 188.125 165.959 188.109Z" fill="#3F2A49"/>
<path d="M113.133 222.865C113.133 222.865 117.194 234.296 113.253 256.775L109.308 240.626L102.73 230.108L113.133 222.865Z" fill="#49809E"/>
<path d="M32.702 220.524C32.7514 220.546 32.8061 220.559 32.8632 220.559C33.4683 220.561 93.3159 220.825 112.822 223.291C113.259 224.697 115.24 231.952 114.208 245.054C114.188 245.306 114.359 245.528 114.593 245.549C114.826 245.57 115.03 245.384 115.05 245.132C116.219 230.286 113.636 223.005 113.525 222.703L113.432 222.449L113.182 222.417C93.9058 219.914 33.474 219.647 32.8659 219.645C32.6325 219.643 32.4424 219.848 32.4414 220.1C32.4414 220.291 32.5486 220.454 32.702 220.524Z" fill="#3F2A49"/>
<path d="M57.108 260.933C81.5465 260.933 111.46 257.524 113.304 257.311C113.574 257.28 113.77 257.017 113.741 256.725C113.713 256.433 113.481 256.219 113.199 256.252C112.532 256.328 46.3326 263.875 29.7045 256.826C13.2708 249.86 12.1237 210.71 12.1143 210.316C12.1072 210.022 11.8795 209.784 11.6089 209.798C11.3369 209.806 11.122 210.05 11.1291 210.344C11.1694 211.984 12.3047 250.595 29.3455 257.818C34.8249 260.141 45.3303 260.933 57.108 260.933Z" fill="#3F2A49"/>
<path d="M31.2773 153.28L39.4591 138.444L53.8359 143.14L59.6675 136.432C59.6675 136.432 60.9082 142.627 60.8716 143.14C60.835 143.653 54.3032 150.992 53.4638 150.913C52.6246 150.834 31.2773 153.28 31.2773 153.28Z" fill="#49809E"/>
<path d="M32.443 316.693C32.6988 316.693 32.9151 316.479 32.9336 316.198C32.9528 315.904 32.7489 315.65 32.4776 315.629C25.5751 315.096 24.6269 308.749 23.0568 298.235C22.7744 296.345 22.4825 294.39 22.131 292.289C19.7936 278.325 18.7647 244.493 18.755 244.153C18.7459 243.865 18.5273 243.637 18.2624 243.637C18.2573 243.637 18.2524 243.637 18.2463 243.638C17.9743 243.647 17.7614 243.893 17.7698 244.187C17.7802 244.528 18.8114 278.438 21.1612 292.48C21.5115 294.571 21.8026 296.519 22.0843 298.404C23.676 309.059 24.727 316.098 32.4071 316.692C32.4195 316.692 32.4309 316.693 32.443 316.693Z" fill="#3F2A49"/>
<path d="M66.9489 101.925L65.001 120.592C65.001 120.592 64.5863 126.932 59.397 127.097L59.4998 136.432C57.6211 138.795 57.4568 141.59 54.5778 142.202C53.1698 142.502 55.2144 143.513 53.3747 143.288C47.5384 142.576 41.1688 136.589 40.9294 134.163C40.69 131.738 43.329 120.61 43.329 120.61L43.7306 115.033L46.6412 93.5894L66.9489 101.925Z" fill="#F39D75"/>
<path d="M51.8848 109.539L51.7246 109.445C51.6383 109.334 51.6521 109.167 51.7562 109.073C51.7931 109.04 55.5237 105.748 58.3016 108.784C58.3973 108.888 58.396 109.055 58.3003 109.158C58.2039 109.261 58.0491 109.26 57.9541 109.156C55.4925 106.466 52.2071 109.356 52.0684 109.48C52.015 109.528 51.9486 109.547 51.8848 109.539Z" fill="#4E3658"/>
<path d="M62.0727 109.185C62.0048 109.176 61.9401 109.137 61.8985 109.072C61.8219 108.951 61.8505 108.786 61.9613 108.704C62.0694 108.624 64.6129 106.762 65.9369 108.3C66.0293 108.407 66.0233 108.574 65.9245 108.674C65.8255 108.774 65.6713 108.768 65.579 108.661C64.5411 107.456 62.2614 109.123 62.2389 109.14L62.0727 109.185Z" fill="#4E3658"/>
<path d="M56.6902 111.2C56.6448 111.635 56.2815 111.949 55.8786 111.9C55.4756 111.851 55.1862 111.458 55.2312 111.023C55.2765 110.587 55.6405 110.274 56.0434 110.323C56.4454 110.371 56.7355 110.765 56.6902 111.2Z" fill="black"/>
<path d="M64.5258 111.357C64.4805 111.793 64.1172 112.106 63.7142 112.058C63.3113 112.008 63.0218 111.615 63.0672 111.179C63.1128 110.744 63.4762 110.43 63.8788 110.48C64.282 110.529 64.5715 110.922 64.5258 111.357Z" fill="black"/>
<path d="M47.2109 94.7083L50.6309 101.437C50.6309 101.437 62.4244 108.121 69.3859 102.758C76.3481 97.3944 74.7102 94.2105 73.1776 90.9127C72.4224 89.2875 68.3829 85.6734 62.7649 87.5887C59.6992 88.6347 57.9762 84.1881 54.3524 85.8761C50.7286 87.564 46.3328 90.717 46.6316 92.2129C46.9315 93.7088 47.2109 94.7083 47.2109 94.7083Z" fill="#4E3658"/>
<path d="M47.7333 92.1089C47.7333 92.1089 42.1505 91.1322 39.9736 96.7835C37.7967 102.435 39.5845 105.752 39.4572 107.501C39.3293 109.249 37.0113 120.859 44.7273 120.913L48.8105 101.767L46.9626 93.7202L47.7333 92.1089Z" fill="#4E3658"/>
<path d="M50.6921 110.193C50.4191 112.806 48.2386 114.685 45.8216 114.391C43.4043 114.096 41.6659 111.738 41.9382 109.124C42.2112 106.51 44.3921 104.631 46.8094 104.925C49.2264 105.221 50.9648 107.578 50.6921 110.193Z" fill="#F39D75"/>
<path d="M45.6917 112.52C44.7824 112.409 44.2522 111.596 44.1297 110.833C43.9839 109.93 44.3438 109.115 45.0456 108.754C46.0829 108.222 46.9177 108.747 47.3347 109.122C47.2021 108.562 46.9462 108.135 46.5731 107.848C45.7639 107.23 44.6555 107.473 44.6444 107.476C44.5783 107.491 44.5137 107.446 44.4993 107.374C44.4855 107.302 44.5275 107.232 44.5937 107.217C44.643 107.206 45.8156 106.947 46.7132 107.632C47.2309 108.027 47.5459 108.653 47.6497 109.492L47.7078 109.963L47.4328 109.592C47.3938 109.54 46.4674 108.318 45.1511 108.994C44.4225 109.367 44.2754 110.194 44.3711 110.787C44.4708 111.404 44.8828 112.155 45.7189 112.257L45.7441 112.259C45.8106 112.267 45.8589 112.331 45.8522 112.404C45.8455 112.476 45.7858 112.53 45.7183 112.523L45.6917 112.52Z" fill="#ED7163"/>
<path d="M48.1149 120.291C48.1149 120.291 47.3554 130.895 59.4487 133.391L59.3933 127.095C59.3933 127.095 51.3026 127.849 48.1149 120.291Z" fill="#ED7163"/>
<path d="M66.1548 117.724C66.1548 117.724 66.4251 130.56 58.6147 130.063C47.439 129.35 47.0785 122.363 47.0039 116.674L48.1006 105.083L48.8074 101.768C49.4928 102.824 49.8467 104.087 49.8192 105.376C49.7597 108.181 49.5482 115.729 50.1543 116.138C51.0109 116.716 64.5524 116.296 66.1548 117.724Z" fill="#4E3658"/>
<path d="M58.7064 116.835L58.6003 116.73C58.5865 116.659 58.6285 116.589 58.6954 116.574L61.2238 116L61.1005 109.704C61.0992 109.631 61.1526 109.57 61.2204 109.569C61.2889 109.566 61.3437 109.626 61.345 109.698L61.4722 116.214L58.7454 116.833L58.7064 116.835Z" fill="#ED7163"/>
<path d="M56.5508 119.166C56.6273 119.16 61.3797 119.617 61.3797 119.617C61.3797 119.617 60.5634 121.664 58.7968 121.499C57.0299 121.334 56.5508 119.166 56.5508 119.166Z" fill="#FBFDFC"/>
<path d="M59.4218 130.075L59.3973 135.007C59.3973 135.007 55.8396 140.779 53.4048 142.623C48.5769 139.003 40.8706 133.871 40.8706 133.871L41.843 127.448C32.8809 126.343 22.3738 132.286 24.7092 135.423C27.0446 138.561 39.1826 139.525 42.4041 140.668C45.5823 141.795 53.7017 144.461 53.7017 144.461C55.8366 142.747 61.5692 135.464 61.5692 135.464L67.3702 137.205C67.4824 130.839 59.4218 130.075 59.4218 130.075Z" fill="#3F64A0"/>
<path d="M76.2591 479.408H30.6758V469.491C30.6758 469.491 33.9913 464.73 39.0399 467.16C39.0399 467.16 46.5135 473.012 53.2446 466.02L70.1219 473.855C70.1219 473.855 76.2591 476.037 76.2591 479.408Z" fill="#4E3658"/>
<path d="M30.6758 482.88H77.5643C77.937 482.88 78.2393 482.553 78.2393 482.15V480.138C78.2393 479.735 77.9374 479.408 77.5643 479.408H30.6758V482.88Z" fill="#E0E7E1"/>
<path d="M58.2387 468.338C56.7095 470.92 53.6387 476.108 51.6851 479.408H48.5781C50.3229 476.46 53.9813 470.279 55.8012 467.207L58.2387 468.338Z" fill="#E0E7E1"/>
<path d="M56.6696 479.41H53.5625C54.9822 477.012 57.7504 472.334 59.7111 469.023L62.1486 470.155C60.5016 472.936 58.2199 476.791 56.6696 479.41Z" fill="#E0E7E1"/>
<path d="M53.6994 144.817C53.784 144.817 53.8693 144.782 53.9334 144.711L64.0594 133.588C64.1863 133.449 64.185 133.224 64.0557 133.086C63.9268 132.949 63.7189 132.95 63.5913 133.09L53.4653 144.213C53.3384 144.353 53.3397 144.577 53.469 144.715C53.5332 144.783 53.6161 144.817 53.6994 144.817Z" fill="black"/>
</svg>
