<svg width="706" height="380" viewBox="0 0 706 380" fill="none" xmlns="http://www.w3.org/2000/svg">
<path d="M346.532 238.271C346.532 249.365 342.265 259.391 333.732 268.351C331.94 270.229 329.465 271.167 326.308 271.167C321.188 271.167 316.964 269.887 313.636 267.327C307.492 262.634 304.42 253.247 304.42 239.167C304.42 229.866 306.297 220.053 310.052 209.727C313.807 199.402 318.585 189.973 324.388 181.439C325.241 180.415 325.881 179.903 326.308 179.903C326.735 179.903 327.204 180.031 327.716 180.287C328.313 180.543 328.911 180.842 329.508 181.183C330.191 181.525 330.66 181.738 330.916 181.823V177.983C330.404 176.959 330.148 176.063 330.148 175.295C330.148 174.527 330.489 174.143 331.172 174.143C331.855 174.143 332.58 174.271 333.348 174.527C340.857 177.087 344.612 183.231 344.612 192.959C344.612 198.506 343.204 204.181 340.388 209.983C339.62 211.519 338.937 212.287 338.34 212.287C337.913 212.287 337.273 211.605 336.42 210.239C333.689 204.607 331.94 197.311 331.172 188.351C329.892 188.351 328.953 188.821 328.356 189.759C327.759 190.698 326.735 193.173 325.284 197.183C319.908 211.69 317.22 226.581 317.22 241.855C317.22 250.303 318.159 257.514 320.036 263.487C325.583 258.282 330.361 251.839 334.372 244.159C338.468 236.394 341.497 228.458 343.46 220.351C345.508 227.093 346.532 233.066 346.532 238.271ZM366.569 251.199V252.159C366.569 254.463 367.273 256.191 368.681 257.343C370.153 258.431 372.329 258.975 375.209 258.975C376.937 258.975 378.697 258.815 380.489 258.495C382.281 258.175 383.753 257.759 384.905 257.247C385.417 257.055 385.865 256.959 386.249 256.959C387.401 256.959 388.361 257.407 389.129 258.303C389.961 259.135 390.377 260.159 390.377 261.375C390.377 262.015 390.217 262.655 389.897 263.295C389.641 263.871 389.225 264.383 388.649 264.831C387.433 265.791 385.513 266.559 382.889 267.135C380.329 267.711 377.513 267.999 374.441 267.999C368.361 267.999 363.689 266.495 360.425 263.487C357.161 260.479 355.529 256.159 355.529 250.527V246.783C355.529 240.703 357.097 236.063 360.233 232.863C363.369 229.663 367.881 228.063 373.769 228.063C379.913 228.063 384.393 229.823 387.209 233.343C388.233 234.687 389.097 236.479 389.801 238.719C390.505 240.895 390.857 243.071 390.857 245.247C390.857 247.487 390.121 249.055 388.649 249.951C387.177 250.783 385.449 251.199 383.465 251.199H366.569ZM380.777 243.999C380.521 241.119 379.849 239.103 378.761 237.951C377.737 236.735 376.105 236.127 373.865 236.127C371.433 236.127 369.641 236.767 368.489 238.047C367.337 239.263 366.665 241.247 366.473 243.999H380.777ZM413.666 267.999C406.818 267.999 402.05 266.815 399.362 264.447C397.826 263.167 397.058 261.727 397.058 260.127C397.058 258.847 397.506 257.727 398.402 256.767C399.298 255.807 400.386 255.327 401.666 255.327C401.986 255.327 402.306 255.391 402.626 255.519C403.01 255.583 403.426 255.743 403.874 255.999C405.602 256.959 407.33 257.695 409.058 258.207C410.786 258.655 412.482 258.879 414.146 258.879C417.41 258.879 419.042 257.791 419.042 255.615C419.042 254.911 418.882 254.367 418.562 253.983C418.306 253.599 417.73 253.215 416.834 252.831C416.002 252.447 414.658 251.999 412.802 251.487C410.306 250.847 408.034 250.175 405.986 249.471C404.002 248.703 402.402 247.647 401.186 246.303C399.97 244.895 399.362 242.911 399.362 240.351C399.362 236.383 400.642 233.343 403.202 231.231C405.762 229.119 409.41 228.063 414.146 228.063C419.394 228.063 423.17 229.055 425.474 231.039C426.562 231.935 427.106 233.119 427.106 234.591C427.106 235.807 426.658 236.895 425.762 237.855C424.866 238.815 423.842 239.295 422.69 239.295C422.37 239.295 422.05 239.263 421.73 239.199C421.474 239.071 420.738 238.847 419.522 238.527C418.69 238.015 417.89 237.663 417.122 237.471C416.418 237.279 415.586 237.183 414.626 237.183C413.09 237.183 411.938 237.407 411.17 237.855C410.466 238.303 410.114 238.975 410.114 239.871C410.114 240.383 410.242 240.831 410.498 241.215C410.754 241.535 411.426 241.887 412.514 242.271C413.602 242.591 415.426 243.135 417.986 243.903C422.338 245.119 425.378 246.591 427.106 248.319C428.834 250.047 429.698 252.511 429.698 255.711C429.698 263.903 424.354 267.999 413.666 267.999ZM451.774 267.999C444.926 267.999 440.158 266.815 437.47 264.447C435.934 263.167 435.166 261.727 435.166 260.127C435.166 258.847 435.614 257.727 436.51 256.767C437.406 255.807 438.494 255.327 439.774 255.327C440.094 255.327 440.414 255.391 440.734 255.519C441.118 255.583 441.534 255.743 441.982 255.999C443.71 256.959 445.438 257.695 447.166 258.207C448.894 258.655 450.59 258.879 452.254 258.879C455.518 258.879 457.15 257.791 457.15 255.615C457.15 254.911 456.99 254.367 456.67 253.983C456.414 253.599 455.838 253.215 454.942 252.831C454.11 252.447 452.766 251.999 450.91 251.487C448.414 250.847 446.142 250.175 444.094 249.471C442.11 248.703 440.51 247.647 439.294 246.303C438.078 244.895 437.47 242.911 437.47 240.351C437.47 236.383 438.75 233.343 441.31 231.231C443.87 229.119 447.518 228.063 452.254 228.063C457.502 228.063 461.278 229.055 463.582 231.039C464.67 231.935 465.214 233.119 465.214 234.591C465.214 235.807 464.766 236.895 463.87 237.855C462.974 238.815 461.95 239.295 460.798 239.295C460.478 239.295 460.158 239.263 459.838 239.199C459.582 239.071 458.846 238.847 457.63 238.527C456.798 238.015 455.998 237.663 455.23 237.471C454.526 237.279 453.694 237.183 452.734 237.183C451.198 237.183 450.046 237.407 449.278 237.855C448.574 238.303 448.222 238.975 448.222 239.871C448.222 240.383 448.35 240.831 448.606 241.215C448.862 241.535 449.534 241.887 450.622 242.271C451.71 242.591 453.534 243.135 456.094 243.903C460.446 245.119 463.486 246.591 465.214 248.319C466.942 250.047 467.806 252.511 467.806 255.711C467.806 263.903 462.462 267.999 451.774 267.999ZM493.77 246.879V260.799C493.77 263.039 493.258 264.799 492.234 266.079C491.21 267.295 489.77 267.903 487.914 267.903C486.122 267.903 484.714 267.295 483.69 266.079C482.666 264.799 482.154 263.039 482.154 260.799V215.871C482.154 213.567 482.89 211.967 484.362 211.071C485.834 210.175 487.562 209.727 489.546 209.727H500.106C504.778 209.727 508.714 210.239 511.914 211.263C515.114 212.287 517.514 214.111 519.114 216.735C520.778 219.359 521.61 223.167 521.61 228.159C521.61 232.063 521.066 235.263 519.978 237.759C518.954 240.191 517.45 242.079 515.466 243.423C513.482 244.703 511.05 245.599 508.17 246.111C505.29 246.623 502.058 246.879 498.474 246.879H493.77ZM493.578 237.183H500.298C502.794 237.183 504.746 236.895 506.154 236.319C507.626 235.743 508.65 234.815 509.226 233.535C509.866 232.191 510.186 230.431 510.186 228.255C510.186 224.927 509.482 222.623 508.074 221.343C506.73 220.063 504.362 219.423 500.97 219.423H493.578V237.183ZM543.775 267.903C539.295 267.903 536.095 266.367 534.175 263.295C533.151 261.695 532.447 259.679 532.063 257.247C531.679 254.815 531.487 251.295 531.487 246.687V213.087C531.487 210.911 531.967 209.247 532.927 208.095C533.887 206.943 535.231 206.367 536.959 206.367C538.751 206.367 540.127 206.943 541.087 208.095C542.047 209.247 542.527 210.911 542.527 213.087V248.607C542.527 250.911 542.623 252.703 542.815 253.983C543.007 255.263 543.327 256.223 543.775 256.863C544.287 257.503 544.959 257.983 545.791 258.303C546.751 258.687 547.487 259.327 547.999 260.223C548.575 261.055 548.863 262.143 548.863 263.487C548.799 264.767 548.287 265.823 547.327 266.655C546.367 267.487 545.183 267.903 543.775 267.903ZM580.188 264.831C577.244 266.943 573.82 267.999 569.916 267.999C562.748 267.999 558.3 265.247 556.572 259.743C556.252 258.719 556.028 257.439 555.9 255.903C555.772 254.367 555.708 252.415 555.708 250.047V234.879C555.708 232.703 556.188 231.039 557.148 229.887C558.108 228.735 559.452 228.159 561.18 228.159C562.972 228.159 564.348 228.735 565.308 229.887C566.268 231.039 566.748 232.703 566.748 234.879V249.183C566.748 252.255 567.004 254.431 567.516 255.711C567.9 256.671 568.476 257.343 569.244 257.727C570.012 258.111 570.972 258.303 572.124 258.303C574.62 258.303 576.348 257.503 577.308 255.903C577.82 255.071 578.172 254.015 578.364 252.735C578.556 251.455 578.652 249.791 578.652 247.743V234.879C578.652 232.703 579.132 231.039 580.092 229.887C581.052 228.735 582.428 228.159 584.22 228.159C585.948 228.159 587.292 228.735 588.252 229.887C589.276 231.039 589.788 232.703 589.788 234.879V263.199C589.788 265.183 589.244 266.463 588.156 267.039C587.068 267.615 585.692 267.903 584.028 267.903C583.132 267.903 582.3 267.679 581.532 267.231C580.828 266.847 580.38 266.047 580.188 264.831ZM624.735 264.639C622.239 266.879 618.943 267.999 614.847 267.999C609.919 267.999 606.207 266.527 603.711 263.583C601.215 260.575 599.967 256.127 599.967 250.239V247.071C599.967 240.991 601.311 236.319 603.999 233.055C606.751 229.727 610.655 228.063 615.711 228.063C619.743 228.063 623.135 229.407 625.887 232.095C626.079 230.559 626.527 229.535 627.231 229.023C627.935 228.447 629.151 228.159 630.879 228.159C632.671 228.159 633.887 228.735 634.527 229.887C635.231 230.975 635.583 232.287 635.583 233.823V259.743C635.583 263.711 635.487 266.879 635.295 269.247C635.167 271.679 634.879 273.631 634.431 275.103C633.983 276.639 633.343 278.047 632.511 279.327C629.119 284.383 623.519 286.911 615.711 286.911C606.623 286.911 601.631 284.767 600.735 280.479C600.671 279.903 600.735 279.263 600.927 278.559C601.247 277.599 601.759 276.831 602.463 276.255C603.231 275.743 604.063 275.487 604.959 275.487C605.407 275.487 605.759 275.519 606.015 275.583C606.271 275.647 606.687 275.839 607.263 276.159C609.247 277.311 611.583 277.887 614.271 277.887C616.191 277.887 617.823 277.599 619.167 277.023C620.511 276.447 621.567 275.647 622.335 274.623C623.167 273.663 623.775 272.479 624.159 271.071C624.543 269.663 624.735 268.127 624.735 266.463V264.639ZM624.447 246.879C624.447 244.895 624.223 243.231 623.775 241.887C623.391 240.543 622.719 239.519 621.759 238.815C620.863 238.111 619.551 237.759 617.823 237.759C615.455 237.759 613.759 238.495 612.735 239.967C611.711 241.439 611.199 243.807 611.199 247.071V249.183C611.199 252.383 611.711 254.719 612.735 256.191C613.759 257.599 615.423 258.303 617.727 258.303C620.159 258.303 621.887 257.599 622.911 256.191C623.999 254.719 624.543 252.383 624.543 249.183L624.447 246.879Z" fill="#00794C"/>
<g filter="url(#filter0_d_141_4718)">
<path d="M155.675 192.669H130.244V321.922H155.675V192.669Z" fill="#00794C"/>
<path d="M193.82 270.218H117.528C96.4951 270.218 79.3828 252.825 79.3828 231.443V179.741C79.3828 158.358 96.4951 140.966 117.528 140.966H206.534V166.817H117.528C110.516 166.817 104.814 172.616 104.814 179.741V231.443C104.814 238.57 110.518 244.367 117.528 244.367H193.82C200.832 244.367 206.534 238.568 206.534 231.443C206.534 224.317 200.83 218.518 193.82 218.518H181.106V192.667H193.82C214.853 192.667 231.965 210.06 231.965 231.443C231.967 252.825 214.855 270.218 193.82 270.218Z" fill="#00794C"/>
</g>
<path d="M114.023 105.002C118.191 100.764 118.191 93.8935 114.022 89.6557C109.854 85.4179 103.094 85.4179 98.9255 89.6557C94.7565 93.8935 94.7565 100.764 98.9255 105.002C103.094 109.24 109.854 109.24 114.023 105.002Z" fill="#020302" stroke="#020302" stroke-width="5.3549" stroke-miterlimit="10"/>
<path d="M190.47 105.002C194.639 100.765 194.639 93.8937 190.47 89.6559C186.301 85.4181 179.542 85.4181 175.373 89.6559C171.204 93.8937 171.204 100.765 175.373 105.002C179.542 109.24 186.301 109.24 190.47 105.002Z" fill="#020302" stroke="#020302" stroke-width="5.3549" stroke-miterlimit="10"/>
<path d="M285.694 374.355H4.9082L27.3204 66.0239H263.283L285.694 374.355Z" stroke="#020302" stroke-width="9.8173" stroke-miterlimit="10" stroke-linecap="round" stroke-linejoin="round"/>
<path d="M106.477 97.3279V44.2099C106.477 22.7508 123.59 5.35474 144.701 5.35474C165.811 5.35474 182.924 22.7508 182.924 44.2099V97.3279" stroke="#00794C" stroke-width="10.7097" stroke-miterlimit="10" stroke-linecap="round" stroke-linejoin="round"/>
<defs>
<filter id="filter0_d_141_4718" x="75.3828" y="140.966" width="160.582" height="188.956" filterUnits="userSpaceOnUse" color-interpolation-filters="sRGB">
<feFlood flood-opacity="0" result="BackgroundImageFix"/>
<feColorMatrix in="SourceAlpha" type="matrix" values="0 0 0 0 0 0 0 0 0 0 0 0 0 0 0 0 0 0 127 0" result="hardAlpha"/>
<feOffset dy="4"/>
<feGaussianBlur stdDeviation="2"/>
<feComposite in2="hardAlpha" operator="out"/>
<feColorMatrix type="matrix" values="0 0 0 0 0 0 0 0 0 0 0 0 0 0 0 0 0 0 0.5 0"/>
<feBlend mode="normal" in2="BackgroundImageFix" result="effect1_dropShadow_141_4718"/>
<feBlend mode="normal" in="SourceGraphic" in2="effect1_dropShadow_141_4718" result="shape"/>
</filter>
</defs>
</svg>
