<svg width="145" height="68" viewBox="0 0 145 68" fill="none" xmlns="http://www.w3.org/2000/svg">
<path d="M8.94 55.3113C9.28667 55.2047 9.69333 55.0113 10.16 54.7313C10.56 55.198 10.7667 55.7247 10.78 56.3113C10.2733 56.5647 9.58667 56.818 8.72 57.0713C8.56 58.2847 8.48 59.198 8.48 59.8113C8.48 60.4247 8.58667 60.7313 8.8 60.7313C9.13333 60.7313 9.55333 60.4313 10.06 59.8313C10.5667 59.2313 11.0467 58.4047 11.5 57.3513C11.9533 56.298 12.2333 55.238 12.34 54.1713C12.34 52.8647 11.7733 51.6447 10.64 50.5113C10.9333 49.938 11.3133 49.418 11.78 48.9513C12.26 48.4847 12.66 48.158 12.98 47.9713L13.46 47.7113C14.06 47.7113 14.5733 48.058 15 48.7513C15.44 49.4313 15.66 50.2647 15.66 51.2513C15.66 52.2247 15.38 53.438 14.82 54.8913C14.26 56.3447 13.5667 57.6913 12.74 58.9313C11.9133 60.1713 10.98 61.2247 9.94 62.0913C8.9 62.9447 7.92 63.3713 7 63.3713C6.08 63.3713 5.44 63.1047 5.08 62.5713C4.73333 62.038 4.56 61.298 4.56 60.3513C4.56 59.8847 4.63333 58.8447 4.78 57.2313C3.55333 57.1647 2.58 56.7513 1.86 55.9913C1.14 55.218 0.78 54.3447 0.78 53.3713C0.78 52.118 1.34667 51.0647 2.48 50.2113C3.61333 49.358 4.82 48.9313 6.1 48.9313C7.00667 48.9313 7.75333 49.2247 8.34 49.8113C8.92667 50.3847 9.22 51.278 9.22 52.4913C9.22 52.9847 9.12667 53.9247 8.94 55.3113ZM5.24 52.5913C5.24 51.3913 4.92667 50.7913 4.3 50.7913C3.87333 50.7913 3.44667 51.0513 3.02 51.5713C2.60667 52.0913 2.4 52.6913 2.4 53.3713C2.4 54.0513 2.64 54.598 3.12 55.0113C3.61333 55.4113 4.22667 55.6113 4.96 55.6113C5.14667 54.1447 5.24 53.138 5.24 52.5913ZM20.1495 55.6313C20.1495 56.218 19.9829 57.1313 19.6495 58.3713C19.3162 59.598 19.1495 60.398 19.1495 60.7713C19.1495 61.1447 19.2229 61.3313 19.3695 61.3313C19.5162 61.3313 19.7829 61.2647 20.1695 61.1313L20.3495 61.0513L20.7095 62.0513C20.2562 62.398 19.6895 62.7047 19.0095 62.9713C18.3429 63.238 17.7362 63.3713 17.1895 63.3713C16.6429 63.3713 16.2095 63.218 15.8895 62.9113C15.5829 62.6047 15.4295 62.1647 15.4295 61.5913C15.4295 61.0047 15.5895 60.118 15.9095 58.9313C16.2429 57.7313 16.4095 56.9713 16.4095 56.6513C16.4095 56.158 16.2362 55.6913 15.8895 55.2513L15.7295 55.0313L15.7895 54.6913C16.4829 54.478 17.8295 54.3713 19.8295 54.3713C20.0429 54.6113 20.1495 55.0313 20.1495 55.6313ZM18.6495 52.8113C18.0495 52.8113 17.5762 52.6513 17.2295 52.3313C16.8962 52.0113 16.7295 51.6047 16.7295 51.1113C16.7295 50.6047 16.9362 50.1847 17.3495 49.8513C17.7762 49.5047 18.2895 49.3313 18.8895 49.3313C19.4895 49.3313 19.9562 49.4713 20.2895 49.7513C20.6229 50.0313 20.7895 50.4247 20.7895 50.9313C20.7895 51.438 20.5829 51.878 20.1695 52.2513C19.7695 52.6247 19.2629 52.8113 18.6495 52.8113ZM21.8056 63.2513H21.4656C21.4656 62.4247 21.6523 61.1713 22.0256 59.4913C22.4123 57.8113 22.6056 56.8447 22.6056 56.5913C22.6056 56.338 22.5456 56.0913 22.4256 55.8513C22.3056 55.6113 22.1856 55.4313 22.0656 55.3113L21.8856 55.1313L21.9256 54.8313C22.7123 54.578 24.0856 54.4513 26.0456 54.4513C26.179 54.758 26.2723 55.078 26.3256 55.4113C27.539 54.6647 28.559 54.2913 29.3856 54.2913C29.9456 54.2913 30.3856 54.478 30.7056 54.8513C31.0256 55.2113 31.1856 55.6513 31.1856 56.1713C31.1856 56.678 31.039 57.498 30.7456 58.6313C30.4523 59.7647 30.3056 60.5047 30.3056 60.8513C30.3056 61.1847 30.3523 61.3513 30.4456 61.3513L31.5056 61.0713L31.8656 62.0713C31.439 62.3913 30.879 62.6913 30.1856 62.9713C29.5056 63.238 28.879 63.3713 28.3056 63.3713C27.1723 63.3713 26.6056 62.7847 26.6056 61.6113C26.6056 61.1047 26.7456 60.278 27.0256 59.1313C27.3056 57.9847 27.4456 57.2713 27.4456 56.9913C27.4456 56.698 27.3523 56.5513 27.1656 56.5513C26.9256 56.5513 26.6056 56.6847 26.2056 56.9513C26.1523 57.1913 26.019 57.7713 25.8056 58.6913C25.379 60.6247 25.1656 62.018 25.1656 62.8713C24.5123 63.1247 23.3923 63.2513 21.8056 63.2513ZM39.1998 60.4313C39.1998 61.258 38.8132 61.958 38.0398 62.5313C37.2798 63.0913 36.3865 63.3713 35.3598 63.3713C34.3332 63.3713 33.4865 63.198 32.8198 62.8513C32.1665 62.5047 31.8398 62.178 31.8398 61.8713C31.8398 61.5513 32.0398 61.1513 32.4398 60.6713C32.8532 60.178 33.2732 59.8913 33.6998 59.8113C34.3132 60.1447 34.8665 60.8847 35.3598 62.0313C35.7465 62.0313 35.9398 61.9047 35.9398 61.6513C35.9398 61.4647 35.8865 61.2913 35.7798 61.1313C35.6732 60.9713 35.5932 60.8447 35.5398 60.7513C35.4865 60.658 35.3932 60.5313 35.2598 60.3713C35.1265 60.198 35.0265 60.0713 34.9598 59.9913C34.6265 59.5913 34.3265 59.2247 34.0598 58.8913C33.4198 58.0913 33.0998 57.3913 33.0998 56.7913C33.0998 56.178 33.2932 55.678 33.6798 55.2913C34.3465 54.6113 35.3265 54.2713 36.6198 54.2713C37.4332 54.2713 38.0798 54.4313 38.5598 54.7513C39.0398 55.058 39.2798 55.5247 39.2798 56.1513C39.2798 56.7647 38.9132 57.4713 38.1798 58.2713C38.8598 59.058 39.1998 59.778 39.1998 60.4313ZM37.8598 56.7713C38.0198 56.518 38.0998 56.2913 38.0998 56.0913C38.0998 55.8913 38.0132 55.738 37.8398 55.6313C37.6665 55.5247 37.4598 55.4713 37.2198 55.4713C36.9798 55.4713 36.7932 55.5313 36.6598 55.6513C36.5398 55.758 36.4798 55.9047 36.4798 56.0913C36.4798 56.278 36.7665 56.6913 37.3398 57.3313C37.5265 57.198 37.6998 57.0113 37.8598 56.7713ZM42.3952 49.9113C42.3952 49.5647 42.3618 49.258 42.2952 48.9913C43.6152 48.6313 44.8152 48.4513 45.8952 48.4513C46.0285 48.6113 46.0952 48.9647 46.0952 49.5113C46.0952 50.4847 45.7952 52.3513 45.1952 55.1113C46.2618 54.5513 47.2018 54.2713 48.0152 54.2713C48.8418 54.2713 49.4685 54.438 49.8952 54.7713C50.3352 55.1047 50.5552 55.5713 50.5552 56.1713C50.5552 57.3313 49.6952 58.158 47.9752 58.6513C48.4018 60.4913 48.8152 61.4113 49.2152 61.4113L50.1752 61.1513L50.6152 62.1313C50.2818 62.398 49.7685 62.6713 49.0752 62.9513C48.3818 63.2313 47.7152 63.3713 47.0752 63.3713C46.4352 63.3713 45.9485 63.1313 45.6152 62.6513C45.2818 62.1713 45.0685 61.5447 44.9752 60.7713C44.8818 59.998 44.8352 59.1313 44.8352 58.1713C45.4752 58.0113 45.9818 57.7847 46.3552 57.4913C46.7285 57.1847 46.9152 56.8847 46.9152 56.5913C46.9152 56.2847 46.7552 56.1313 46.4352 56.1313C46.1818 56.1313 45.8818 56.2047 45.5352 56.3513C45.2018 56.498 44.9552 56.638 44.7952 56.7713C44.0752 59.8113 43.7152 61.8447 43.7152 62.8713C42.6885 63.098 41.4685 63.2113 40.0552 63.2113C40.0418 63.1047 40.0352 62.978 40.0352 62.8313C40.0352 62.138 40.4285 60.1113 41.2152 56.7513C42.0018 53.378 42.3952 51.098 42.3952 49.9113ZM60.2769 54.4113H60.4369C60.3702 54.758 60.2569 55.5047 60.0969 56.6513C59.7369 59.2647 59.3502 61.238 58.9369 62.5713C57.9102 65.9313 56.2635 67.6113 53.9969 67.6113C53.3169 67.6113 52.7635 67.4647 52.3369 67.1713C51.9235 66.8913 51.7169 66.518 51.7169 66.0513C51.7169 65.598 51.8235 65.218 52.0369 64.9113C52.2635 64.618 52.5835 64.3713 52.9969 64.1713C53.7035 63.8247 54.5702 63.538 55.5969 63.3113C55.7035 62.8047 55.7702 62.478 55.7969 62.3313C54.7569 62.8913 53.7702 63.1713 52.8369 63.1713C51.5569 63.1713 50.9169 62.5447 50.9169 61.2913C50.9169 60.8513 51.0635 59.9913 51.3569 58.7113C51.6502 57.418 51.7969 56.5247 51.7969 56.0313C51.7969 55.538 51.7635 55.1713 51.6969 54.9313C53.2702 54.598 54.4902 54.4313 55.3569 54.4313C55.4635 54.5913 55.5169 54.9113 55.5169 55.3913C55.5169 55.858 55.3635 56.7713 55.0569 58.1313C54.7635 59.4913 54.6169 60.2913 54.6169 60.5313C54.6169 60.9447 54.8169 61.1513 55.2169 61.1513C55.4435 61.1513 55.7035 61.0913 55.9969 60.9713C56.1035 60.2913 56.2502 59.258 56.4369 57.8713C56.6369 56.4713 56.7769 55.5113 56.8569 54.9913C57.2035 54.8313 57.7235 54.698 58.4169 54.5913C59.1235 54.4713 59.7435 54.4113 60.2769 54.4113ZM53.1369 65.6713C53.1369 65.978 53.3369 66.1313 53.7369 66.1313C53.9369 66.1313 54.1969 65.9913 54.5169 65.7113C54.8502 65.4447 55.1169 65.0447 55.3169 64.5113C53.8635 64.7647 53.1369 65.1513 53.1369 65.6713Z" fill="url(#paint0_linear_19_25575)"/>
<path d="M69.8545 59.4713C69.8545 60.578 69.3212 61.5047 68.2545 62.2513C67.2012 62.998 65.9745 63.3713 64.5745 63.3713C63.4812 63.3713 62.5545 63.138 61.7945 62.6713C61.0479 62.2047 60.6745 61.758 60.6745 61.3313C60.8879 60.8113 61.2945 60.2513 61.8945 59.6513C62.4945 59.0513 63.0479 58.738 63.5545 58.7113C63.8879 58.858 64.1945 59.2247 64.4745 59.8113C64.7679 60.3847 65.0012 61.0513 65.1745 61.8113C65.8945 61.7847 66.2545 61.378 66.2545 60.5913C66.2545 60.0713 66.0545 59.438 65.6545 58.6913C65.2679 57.9313 64.8412 57.2247 64.3745 56.5713C63.9079 55.918 63.4745 55.1913 63.0745 54.3913C62.6879 53.5913 62.4945 52.8913 62.4945 52.2913C62.4945 51.3047 62.9479 50.498 63.8545 49.8713C64.7612 49.2447 65.7679 48.9313 66.8745 48.9313C67.9945 48.9313 68.8612 49.1713 69.4745 49.6513C70.1012 50.1313 70.4145 50.6847 70.4145 51.3113C70.4145 51.8313 70.3079 52.2513 70.0945 52.5713C69.8812 52.878 69.7079 53.118 69.5745 53.2913C69.4545 53.4513 69.2879 53.6247 69.0745 53.8113C68.6745 54.158 68.3679 54.4113 68.1545 54.5713L67.8545 54.7913C68.6412 55.7647 69.2345 56.898 69.6345 58.1913C69.7812 58.658 69.8545 59.0847 69.8545 59.4713ZM68.8145 51.4513C68.8145 50.8247 68.4145 50.5113 67.6145 50.5113C67.1479 50.5113 66.7679 50.6113 66.4745 50.8113C66.1945 51.0113 66.0545 51.2647 66.0545 51.5713C66.0545 51.8647 66.1745 52.2247 66.4145 52.6513C66.6679 53.078 66.8679 53.378 67.0145 53.5513C67.3345 53.3913 67.7145 53.098 68.1545 52.6713C68.5945 52.2447 68.8145 51.838 68.8145 51.4513ZM77.1308 49.5113C77.1308 50.4447 76.7908 52.3647 76.1108 55.2713C77.2574 54.618 78.1574 54.2913 78.8108 54.2913C79.4774 54.2913 79.9708 54.4713 80.2908 54.8313C80.6108 55.178 80.7708 55.618 80.7708 56.1513C80.7708 56.6713 80.6241 57.498 80.3308 58.6313C80.0374 59.7513 79.8908 60.4847 79.8908 60.8313C79.8908 61.178 79.9441 61.3513 80.0508 61.3513L81.0908 61.0713L81.4508 62.0713C81.0374 62.378 80.4641 62.6713 79.7308 62.9513C79.0108 63.2313 78.3708 63.3713 77.8108 63.3713C76.7308 63.3713 76.1908 62.758 76.1908 61.5313C76.1908 60.9713 76.3308 60.1447 76.6108 59.0513C76.8908 57.958 77.0308 57.2713 77.0308 56.9913C77.0308 56.698 76.9308 56.5513 76.7308 56.5513C76.4508 56.5513 76.1108 56.6847 75.7108 56.9513C75.1108 59.498 74.8108 61.2713 74.8108 62.2713L74.8308 62.7513C73.4708 63.1113 72.2508 63.2913 71.1708 63.2913C71.0908 63.2513 71.0508 63.038 71.0508 62.6513C71.0508 61.8247 71.4441 59.778 72.2308 56.5113C73.0308 53.2447 73.4308 51.0447 73.4308 49.9113C73.4308 49.5647 73.4041 49.258 73.3508 48.9913C74.6441 48.6313 75.8574 48.4513 76.9908 48.4513C77.0841 48.678 77.1308 49.0313 77.1308 49.5113ZM85.1897 63.3713C84.1497 63.3713 83.3297 63.0447 82.7297 62.3913C82.1297 61.7247 81.8297 60.7913 81.8297 59.5913C81.8297 58.1247 82.263 56.8847 83.1297 55.8713C83.9964 54.8447 85.1364 54.3313 86.5497 54.3313L87.4497 54.4113C87.7697 54.318 88.0697 54.2713 88.3497 54.2713C89.0164 54.2713 89.4897 54.498 89.7697 54.9513C90.063 55.4047 90.2297 56.0513 90.2697 56.8913C90.8297 56.8647 91.363 56.778 91.8697 56.6313L92.1497 56.5513C92.243 56.6447 92.3097 56.9247 92.3497 57.3913L92.3697 57.6113C91.7697 57.918 91.0364 58.158 90.1697 58.3313C89.8764 59.7447 89.2964 60.938 88.4297 61.9113C87.563 62.8847 86.483 63.3713 85.1897 63.3713ZM85.5897 59.5113C85.5897 60.7513 85.903 61.3713 86.5297 61.3713C86.9697 61.3713 87.4164 61.0913 87.8697 60.5313C88.3364 59.9713 88.6564 59.2913 88.8297 58.4913C87.4697 58.4913 86.7897 57.838 86.7897 56.5313C86.7897 56.3047 86.8097 56.0713 86.8497 55.8313C86.7164 55.8313 86.6164 55.8513 86.5497 55.8913C86.323 56.1313 86.103 56.618 85.8897 57.3513C85.6897 58.0713 85.5897 58.7913 85.5897 59.5113ZM90.3155 67.6113C90.2088 67.438 90.1555 67.0713 90.1555 66.5113C90.1555 65.9513 90.4088 64.4313 90.9155 61.9513C91.4355 59.4713 91.6955 57.918 91.6955 57.2913C91.6955 56.6647 91.6355 56.1913 91.5155 55.8713C91.3955 55.538 91.2755 55.3247 91.1555 55.2313L90.9755 55.0913L91.0155 54.7913C91.8155 54.538 93.1688 54.4113 95.0755 54.4113C95.1821 54.6113 95.2688 54.8713 95.3355 55.1913C96.1888 54.578 96.9955 54.2713 97.7555 54.2713C98.5155 54.2713 99.1355 54.5647 99.6155 55.1513C100.109 55.7247 100.355 56.7047 100.355 58.0913C100.355 59.478 99.9888 60.7047 99.2555 61.7713C98.5355 62.838 97.4755 63.3713 96.0755 63.3713C95.4621 63.3713 94.8621 63.2513 94.2755 63.0113C93.9688 64.518 93.8155 65.8447 93.8155 66.9913C92.8555 67.338 91.6888 67.5447 90.3155 67.6113ZM95.1555 61.6913C95.5155 61.6913 95.8221 61.4247 96.0755 60.8913C96.5288 59.958 96.7555 58.8247 96.7555 57.4913C96.7555 56.7047 96.5621 56.3113 96.1755 56.3113C95.9755 56.3113 95.7088 56.3847 95.3755 56.5313C95.2955 57.6513 95.0288 59.338 94.5755 61.5913C94.8021 61.658 94.9955 61.6913 95.1555 61.6913ZM100.55 67.6113C100.443 67.438 100.39 67.0713 100.39 66.5113C100.39 65.9513 100.643 64.4313 101.15 61.9513C101.67 59.4713 101.93 57.918 101.93 57.2913C101.93 56.6647 101.87 56.1913 101.75 55.8713C101.63 55.538 101.51 55.3247 101.39 55.2313L101.21 55.0913L101.25 54.7913C102.05 54.538 103.403 54.4113 105.31 54.4113C105.417 54.6113 105.503 54.8713 105.57 55.1913C106.423 54.578 107.23 54.2713 107.99 54.2713C108.75 54.2713 109.37 54.5647 109.85 55.1513C110.343 55.7247 110.59 56.7047 110.59 58.0913C110.59 59.478 110.223 60.7047 109.49 61.7713C108.77 62.838 107.71 63.3713 106.31 63.3713C105.697 63.3713 105.097 63.2513 104.51 63.0113C104.203 64.518 104.05 65.8447 104.05 66.9913C103.09 67.338 101.923 67.5447 100.55 67.6113ZM105.39 61.6913C105.75 61.6913 106.057 61.4247 106.31 60.8913C106.763 59.958 106.99 58.8247 106.99 57.4913C106.99 56.7047 106.797 56.3113 106.41 56.3113C106.21 56.3113 105.943 56.3847 105.61 56.5313C105.53 57.6513 105.263 59.338 104.81 61.5913C105.037 61.658 105.23 61.6913 105.39 61.6913ZM116.204 55.6313C116.204 56.218 116.038 57.1313 115.704 58.3713C115.371 59.598 115.204 60.398 115.204 60.7713C115.204 61.1447 115.278 61.3313 115.424 61.3313C115.571 61.3313 115.838 61.2647 116.224 61.1313L116.404 61.0513L116.764 62.0513C116.311 62.398 115.744 62.7047 115.064 62.9713C114.398 63.238 113.791 63.3713 113.244 63.3713C112.698 63.3713 112.264 63.218 111.944 62.9113C111.638 62.6047 111.484 62.1647 111.484 61.5913C111.484 61.0047 111.644 60.118 111.964 58.9313C112.298 57.7313 112.464 56.9713 112.464 56.6513C112.464 56.158 112.291 55.6913 111.944 55.2513L111.784 55.0313L111.844 54.6913C112.538 54.478 113.884 54.3713 115.884 54.3713C116.098 54.6113 116.204 55.0313 116.204 55.6313ZM114.704 52.8113C114.104 52.8113 113.631 52.6513 113.284 52.3313C112.951 52.0113 112.784 51.6047 112.784 51.1113C112.784 50.6047 112.991 50.1847 113.404 49.8513C113.831 49.5047 114.344 49.3313 114.944 49.3313C115.544 49.3313 116.011 49.4713 116.344 49.7513C116.678 50.0313 116.844 50.4247 116.844 50.9313C116.844 51.438 116.638 51.878 116.224 52.2513C115.824 52.6247 115.318 52.8113 114.704 52.8113ZM117.86 63.2513H117.52C117.52 62.4247 117.707 61.1713 118.08 59.4913C118.467 57.8113 118.66 56.8447 118.66 56.5913C118.66 56.338 118.6 56.0913 118.48 55.8513C118.36 55.6113 118.24 55.4313 118.12 55.3113L117.94 55.1313L117.98 54.8313C118.767 54.578 120.14 54.4513 122.1 54.4513C122.234 54.758 122.327 55.078 122.38 55.4113C123.594 54.6647 124.614 54.2913 125.44 54.2913C126 54.2913 126.44 54.478 126.76 54.8513C127.08 55.2113 127.24 55.6513 127.24 56.1713C127.24 56.678 127.094 57.498 126.8 58.6313C126.507 59.7647 126.36 60.5047 126.36 60.8513C126.36 61.1847 126.407 61.3513 126.5 61.3513L127.56 61.0713L127.92 62.0713C127.494 62.3913 126.934 62.6913 126.24 62.9713C125.56 63.238 124.934 63.3713 124.36 63.3713C123.227 63.3713 122.66 62.7847 122.66 61.6113C122.66 61.1047 122.8 60.278 123.08 59.1313C123.36 57.9847 123.5 57.2713 123.5 56.9913C123.5 56.698 123.407 56.5513 123.22 56.5513C122.98 56.5513 122.66 56.6847 122.26 56.9513C122.207 57.1913 122.074 57.7713 121.86 58.6913C121.434 60.6247 121.22 62.018 121.22 62.8713C120.567 63.1247 119.447 63.2513 117.86 63.2513ZM133.515 62.2713C132.581 62.778 131.748 63.0313 131.015 63.0313C130.295 63.0313 129.688 62.7447 129.195 62.1713C128.715 61.5847 128.475 60.718 128.475 59.5713C128.475 58.038 128.888 56.7713 129.715 55.7713C130.555 54.7713 131.555 54.2713 132.715 54.2713C133.275 54.2713 133.908 54.4247 134.615 54.7313C135.441 54.478 136.381 54.3513 137.435 54.3513H137.775C137.841 54.4847 137.875 54.7847 137.875 55.2513C137.875 55.7047 137.788 56.6047 137.615 57.9513C137.455 59.298 137.275 60.4247 137.075 61.3313C136.648 63.2647 135.981 64.7913 135.075 65.9113C134.181 67.0447 133.055 67.6113 131.695 67.6113C131.028 67.6113 130.481 67.4647 130.055 67.1713C129.641 66.878 129.435 66.5047 129.435 66.0513C129.435 65.598 129.541 65.218 129.755 64.9113C129.981 64.618 130.301 64.3713 130.715 64.1713C131.421 63.8247 132.288 63.538 133.315 63.3113L133.515 62.2713ZM133.635 55.8913C133.168 55.8913 132.808 56.2913 132.555 57.0913C132.315 57.8913 132.195 58.758 132.195 59.6913C132.195 60.6247 132.415 61.0913 132.855 61.0913C133.041 61.0913 133.315 60.998 133.675 60.8113C133.781 59.7313 133.955 58.1313 134.195 56.0113C133.995 55.9313 133.808 55.8913 133.635 55.8913ZM131.355 66.1313C131.608 66.1313 131.895 66.0047 132.215 65.7513C132.548 65.498 132.821 65.0847 133.035 64.5113C131.581 64.7647 130.855 65.1513 130.855 65.6713C130.881 65.978 131.048 66.1313 131.355 66.1313Z" fill="url(#paint1_linear_19_25575)"/>
<path d="M49.1304 32.9302C45.0411 32.9302 41.7148 31.3385 41.7148 29.3825C41.7148 27.4261 45.0411 25.8345 49.1304 25.8345C53.2189 25.8345 56.5459 27.4261 56.5459 29.3825C56.5459 31.3385 53.2189 32.9302 49.1304 32.9302ZM49.1304 28.0855C47.6359 28.0855 46.4193 28.6675 46.4193 29.3825C46.4193 30.0975 47.6351 30.6791 49.1304 30.6791C50.6249 30.6791 51.8406 30.0975 51.8406 29.3825C51.8406 28.6675 50.6249 28.0855 49.1304 28.0855Z" fill="url(#paint2_linear_19_25575)"/>
<path d="M81.2886 32.9302C77.1993 32.9302 73.873 31.3385 73.873 29.3825C73.873 27.4261 77.2001 25.8345 81.2886 25.8345C85.3771 25.8345 88.7041 27.4261 88.7041 29.3825C88.7033 31.3385 85.3771 32.9302 81.2886 32.9302ZM81.2886 28.0855C79.7941 28.0855 78.5775 28.6675 78.5775 29.3825C78.5775 30.0975 79.7933 30.6791 81.2886 30.6791C82.7831 30.6791 83.9988 30.0975 83.9988 29.3825C83.9988 28.6675 82.7823 28.0855 81.2886 28.0855Z" fill="url(#paint3_linear_19_25575)"/>
<path d="M102.448 7.85777C99.4879 7.7979 96.5273 7.74036 93.5644 7.70421C90.5624 7.66261 87.5556 7.65288 84.5503 7.63655L80.0376 7.64239L75.5208 7.67933C72.5075 7.72054 69.4933 7.76602 66.4694 7.8811C69.4364 8.18357 72.4124 8.41646 75.3892 8.64468L79.858 8.9627L84.3309 9.24963C87.3158 9.4203 90.2991 9.59797 93.2872 9.74338C95.2709 9.84369 97.2571 9.93271 99.2432 10.019C98.7248 10.7387 98.1307 11.4447 97.4554 12.1313C91.1207 12.1585 84.786 12.2367 78.4521 12.3813C70.423 12.5737 62.3939 12.8435 54.3648 13.3645C62.3939 13.8855 70.423 14.1553 78.4521 14.3477C83.8384 14.4706 89.2256 14.5456 94.6119 14.5826C94.3884 14.749 94.1665 14.9158 93.9325 15.0791C92.373 16.1412 90.6022 17.1244 88.6721 18.0245C85.0144 18.0669 81.3574 18.1326 77.6996 18.2313C70.9114 18.4238 64.1233 18.6932 57.3351 19.2146C64.1233 19.7355 70.9114 20.0053 77.6996 20.1978C79.407 20.2437 81.1144 20.2779 82.8218 20.3113C79.1185 21.4835 75.0528 22.3707 70.8042 22.9064L69.0569 23.0865C68.4751 23.1475 67.89 23.2151 67.3374 23.2393C66.2143 23.3256 65.105 23.3574 64.0119 23.3629C61.8291 23.3602 59.7447 23.1623 57.9487 22.756C56.1494 22.3517 54.6403 21.744 53.4855 20.9711C52.3307 20.1986 51.527 19.2643 51.0581 18.2515L50.8753 17.8729L50.7664 17.4786C50.694 17.2123 50.6071 16.972 50.5526 16.6462L50.1837 14.8081L49.436 11.1333C49.3231 10.5171 49.1329 9.91912 49.0931 9.28501C48.9899 8.59181 48.7916 7.8811 48.4812 7.17974C47.853 5.777 46.799 4.36338 44.9363 3.05162C44.0091 2.39808 42.8348 1.77718 41.4029 1.2496C38.1604 0.0544809 34.8122 -0.171003 31.486 0.106589C26.5174 0.521033 23.8559 3.14571 26.2224 5.27663L29.8501 4.35522C31.5786 3.91628 33.1877 3.78759 34.492 3.93844C35.8012 4.07724 37.1218 4.53678 38.2091 5.28131C39.2908 6.02116 40.0848 6.97951 40.5537 7.99812C40.791 8.51054 40.9502 9.03229 41.0429 9.57737C41.0916 10.1854 41.2989 10.8176 41.4248 11.4373L42.3285 15.1704L42.7852 17.0362C42.8454 17.3293 42.9754 17.7014 43.0892 18.0494L43.2671 18.5762L43.5378 19.103C44.2488 20.5022 45.4906 21.9061 47.4458 23.1249C49.3783 24.3461 52.0349 25.3465 54.9816 25.9479C57.9292 26.5587 61.0847 26.7838 64.0835 26.7457C65.582 26.7185 67.0659 26.6539 68.4978 26.5159C69.2357 26.4642 69.907 26.3756 70.5872 26.2916L72.6269 26.0397C78.0051 25.2582 83.0396 24.004 87.4621 22.3925C91.8513 20.7569 95.5903 18.7554 98.5419 16.5312C101.441 14.2894 103.545 11.8269 104.738 9.27217L104.762 9.22241C104.804 9.12871 104.822 9.03074 104.813 8.92966C104.76 8.33871 103.685 7.88304 102.448 7.85777Z" fill="url(#paint4_linear_19_25575)"/>
<path d="M22.6077 35.6146C22.6077 35.6146 66.9936 30.0258 116.842 34.9777C116.842 34.9777 68.0176 32.4308 18.8516 41.769C18.8516 41.769 19.8763 37.5954 22.6077 35.6146Z" fill="url(#paint5_linear_19_25575)"/>
<defs>
<linearGradient id="paint0_linear_19_25575" x1="73" y1="43.1313" x2="73" y2="61.0002" gradientUnits="userSpaceOnUse">
<stop stop-color="#FEBA2A"/>
<stop offset="1" stop-color="#F38827"/>
</linearGradient>
<linearGradient id="paint1_linear_19_25575" x1="73" y1="43.1313" x2="73" y2="61.0002" gradientUnits="userSpaceOnUse">
<stop offset="0.4375" stop-color="#BB3AEA"/>
<stop offset="1" stop-color="#3B206F"/>
</linearGradient>
<linearGradient id="paint2_linear_19_25575" x1="49.1304" y1="25.8345" x2="49.1304" y2="32.9302" gradientUnits="userSpaceOnUse">
<stop stop-color="#FEBA2B"/>
<stop offset="1" stop-color="#C85B19"/>
</linearGradient>
<linearGradient id="paint3_linear_19_25575" x1="81.2886" y1="25.8345" x2="81.2886" y2="32.9302" gradientUnits="userSpaceOnUse">
<stop stop-color="#FEBA2B"/>
<stop offset="1" stop-color="#C85B19"/>
</linearGradient>
<linearGradient id="paint4_linear_19_25575" x1="65.0816" y1="0" x2="65.0816" y2="26.7498" gradientUnits="userSpaceOnUse">
<stop stop-color="#E88029"/>
<stop offset="1" stop-color="#FA4206"/>
</linearGradient>
<linearGradient id="paint5_linear_19_25575" x1="67.8469" y1="32.9307" x2="67.8469" y2="41.769" gradientUnits="userSpaceOnUse">
<stop stop-color="#E88029"/>
<stop offset="1" stop-color="#FA4206"/>
</linearGradient>
</defs>
</svg>
