<svg width="68" height="68" viewBox="0 0 68 68" fill="none" xmlns="http://www.w3.org/2000/svg">
<rect width="67.0417" height="67.0417" rx="33.5208" fill="white"/>
<g clip-path="url(#clip0_2_33598)">
<path d="M42.8294 36.9071C41.8694 36.9079 40.924 37.1423 40.0747 37.59C39.2255 38.0377 38.498 38.6854 37.9549 39.4771L29.6903 35.7453C30.2773 34.3278 30.2796 32.7357 29.6966 31.3165L37.9498 27.5657C38.7547 28.7298 39.9501 29.5668 41.3192 29.9249C42.6883 30.2831 44.1404 30.1387 45.4122 29.5179C46.684 28.8972 47.6911 27.8411 48.251 26.5414C48.8108 25.2417 48.8863 23.7843 48.4637 22.4337C48.0411 21.0831 47.1484 19.9287 45.9475 19.1799C44.7467 18.4311 43.3172 18.1374 41.9184 18.3523C40.5197 18.5671 39.2442 19.2762 38.3234 20.3509C37.4027 21.4255 36.8976 22.7946 36.8998 24.2098C36.9052 24.5448 36.9391 24.8787 37.0014 25.2078L28.2275 29.1948C27.3849 28.4053 26.3299 27.8791 25.1923 27.681C24.0548 27.4828 22.884 27.6212 21.8241 28.0793C20.7641 28.5373 19.8609 29.295 19.2257 30.2593C18.5904 31.2235 18.2506 32.3524 18.2481 33.5071C18.2455 34.6618 18.5803 35.7921 19.2114 36.7592C19.8424 37.7262 20.7422 38.4879 21.8002 38.9506C22.8581 39.4133 24.0282 39.5569 25.1667 39.3637C26.3051 39.1705 27.3624 38.649 28.2085 37.8632L37.0052 41.8349C36.9441 42.1638 36.9105 42.4972 36.9049 42.8317C36.9046 44.0038 37.252 45.1497 37.903 46.1244C38.5541 47.0991 39.4795 47.8588 40.5624 48.3074C41.6452 48.7561 42.8368 48.8736 43.9864 48.645C45.1361 48.4164 46.1921 47.852 47.0209 47.0231C47.8497 46.1943 48.4141 45.1383 48.6427 43.9887C48.8713 42.8391 48.7539 41.6475 48.3052 40.5646C47.8565 39.4818 47.0968 38.5563 46.1221 37.9053C45.1474 37.2542 44.0015 36.9069 42.8294 36.9071ZM42.8294 20.8235C43.4992 20.8232 44.1541 21.0216 44.7111 21.3936C45.2682 21.7655 45.7024 22.2943 45.9589 22.913C46.2154 23.5318 46.2827 24.2127 46.1521 24.8697C46.0216 25.5267 45.6992 26.1302 45.2257 26.6039C44.7521 27.0776 44.1487 27.4003 43.4918 27.531C42.8349 27.6618 42.1539 27.5948 41.5351 27.3385C40.9162 27.0823 40.3873 26.6482 40.0151 26.0913C39.643 25.5344 39.4443 24.8796 39.4443 24.2098C39.445 23.3121 39.8018 22.4514 40.4365 21.8165C41.0711 21.1816 41.9317 20.8245 42.8294 20.8235ZM24.2076 36.9071C23.5378 36.9074 22.8829 36.709 22.3259 36.337C21.7688 35.9651 21.3346 35.4363 21.0781 34.8175C20.8216 34.1988 20.7543 33.5179 20.8849 32.8609C21.0154 32.2039 21.3378 31.6004 21.8113 31.1267C22.2849 30.653 22.8883 30.3303 23.5452 30.1995C24.2021 30.0688 24.8831 30.1358 25.5019 30.392C26.1208 30.6483 26.6497 31.0823 27.0219 31.6393C27.394 32.1962 27.5927 32.8509 27.5927 33.5208C27.5917 34.4183 27.2347 35.2789 26.6002 35.9137C25.9656 36.5485 25.1052 36.9058 24.2076 36.9071ZM42.8294 46.218C42.1597 46.218 41.5049 46.0194 40.948 45.6473C40.3912 45.2752 39.9571 44.7464 39.7008 44.1276C39.4445 43.5088 39.3775 42.8279 39.5081 42.171C39.6388 41.5141 39.9613 40.9107 40.4349 40.4372C40.9085 39.9636 41.5119 39.641 42.1688 39.5104C42.8257 39.3797 43.5065 39.4468 44.1253 39.7031C44.7441 39.9594 45.273 40.3934 45.6451 40.9503C46.0172 41.5072 46.2158 42.1619 46.2158 42.8317C46.2151 43.7296 45.8581 44.5905 45.2232 45.2255C44.5883 45.8604 43.7273 46.2174 42.8294 46.218Z" fill="black"/>
</g>
<defs>
<clipPath id="clip0_2_33598">
<rect width="30.4735" height="30.4735" fill="white" transform="translate(18.2832 18.2842)"/>
</clipPath>
</defs>
</svg>
