<svg width="445" height="486" viewBox="0 0 445 486" fill="none" xmlns="http://www.w3.org/2000/svg">
<path d="M431.411 236.933C438.619 277.046 453.227 358.343 418.269 412.729C355.801 509.913 141.72 505.741 47.9156 380.032C41.3644 371.253 -13.5787 295.191 3.15675 198.458C24.7219 73.8067 153.41 -16.3785 255.543 8.06086C320.154 23.5217 361.514 81.8253 378.298 105.514C385.44 115.594 418.147 163.116 431.411 236.933Z" fill="#F4F7FA"/>
<path d="M90.7706 233.149C90.8931 233.252 91.0163 233.354 91.1398 233.456C98.443 239.486 107.401 244.669 118.461 248.141C120.661 248.651 122.861 249.162 125.061 249.673C128.175 244.519 130.29 239.009 124.149 235.015C114.613 228.812 118.938 208.957 123.384 202.735C128.887 195.033 141.363 176.815 126.758 166.973C114.599 158.78 105.218 156.203 108.583 137.394C111.948 118.585 105.339 104.455 89.6563 101.314C73.1522 98.0101 65.2892 70.7762 50.1649 75.0018C23.8117 82.3647 35.3545 129.03 60.802 148.629C86.2497 168.228 67.5197 174.858 63.2482 189.834C57.417 210.278 84.1357 212.917 89.0397 222.928C90.7009 226.318 91.0762 229.837 90.7706 233.149Z" fill="url(#paint0_linear_21_18120)"/>
<mask id="mask0_21_18120" style="mask-type:luminance" maskUnits="userSpaceOnUse" x="35" y="74" width="99" height="180">
<path d="M87.3803 244.37L122.826 253.798C126.115 248.874 131.009 239.479 124.149 235.018C114.612 228.816 118.938 208.96 123.384 202.738C128.887 195.037 141.363 176.818 126.758 166.976C114.599 158.783 105.218 156.206 108.583 137.397C111.948 118.588 105.339 104.458 89.6562 101.318C73.1521 98.013 65.2891 70.7791 50.1648 75.0047C23.8118 82.3677 35.3545 129.033 60.8021 148.632C86.2498 168.231 67.5197 174.861 63.2483 189.836C57.4171 210.281 84.1358 212.92 89.0398 222.93C92.8842 230.778 89.8599 239.316 87.3803 244.37Z" fill="white"/>
</mask>
<g mask="url(#mask0_21_18120)">
<g opacity="0.5">
<path d="M105.43 242.728L106.219 242.766C108.808 179.787 83.3606 115.745 39.8068 75.6328L39.2969 76.2917C82.6672 116.235 108.008 180.009 105.43 242.728Z" fill="#FCFDFE"/>
<path d="M104.145 208.259L104.912 208.467C110.39 184.423 133.533 170.796 133.767 170.661L133.396 169.899C133.16 170.036 109.71 183.836 104.145 208.259Z" fill="#FCFDFE"/>
<path d="M105.614 231.127L106.379 230.913C100.656 206.582 60.7388 192.538 60.3363 192.399L60.0977 193.222C60.4959 193.359 99.9989 207.259 105.614 231.127Z" fill="#FCFDFE"/>
<path d="M88.7604 148.789L89.5405 148.647C86.5271 128.994 103.364 104.572 103.534 104.328L102.905 103.806C102.732 104.053 85.6911 128.773 88.7604 148.789Z" fill="#FCFDFE"/>
<path d="M70.721 113.918L71.2855 113.314C56.7031 97.1111 28.5929 96.2593 28.3102 96.2529L28.293 97.1151C28.572 97.1211 56.3659 97.9675 70.721 113.918Z" fill="#FCFDFE"/>
</g>
</g>
<mask id="mask1_21_18120" style="mask-type:luminance" maskUnits="userSpaceOnUse" x="41" y="18" width="118" height="257">
<path d="M138.142 274.236L98.9374 274.09C98.9374 274.09 91.6257 252.128 101.282 236.683C120.982 205.172 94.3031 188.552 84.0838 179.767C68.6719 166.52 60.3878 147.514 83.1344 139.338C105.881 131.161 83.1681 92.6707 55.4511 75.1884C28.3282 58.0807 40.5593 -4.37805 102.381 26.7702C139.3 45.3719 133.375 88.1109 135.088 110.47C136.8 132.828 167.274 134.79 156.757 162.057C147.774 185.348 130.792 202.292 143.662 218.375C156.532 234.458 157.812 252.442 138.142 274.236Z" fill="white"/>
</mask>
<g mask="url(#mask1_21_18120)">
<path d="M138.142 274.235L98.9372 274.09C98.9372 274.09 91.6256 252.127 101.281 236.682C120.982 205.171 94.303 188.551 84.0836 179.766C68.6718 166.519 61.9154 149.451 80.5328 138.464C101.597 126.033 83.168 92.6697 55.4511 75.1874C28.3282 58.0797 40.5593 -4.37903 102.381 26.7693C139.3 45.371 133.375 88.11 135.088 110.469C136.8 132.827 167.274 134.789 156.757 162.056C147.774 185.347 130.792 202.291 143.662 218.374C156.532 234.457 157.812 252.441 138.142 274.235Z" fill="url(#paint1_linear_21_18120)"/>
</g>
<mask id="mask2_21_18120" style="mask-type:luminance" maskUnits="userSpaceOnUse" x="41" y="18" width="118" height="257">
<path d="M138.142 274.236L98.9374 274.09C98.9374 274.09 91.6257 252.128 101.282 236.683C120.982 205.172 94.3031 188.552 84.0838 179.767C68.6719 166.52 60.3878 147.514 83.1344 139.338C105.881 131.161 83.1681 92.6707 55.4511 75.1884C28.3282 58.0807 40.5593 -4.37805 102.381 26.7702C139.3 45.3719 133.375 88.1109 135.088 110.47C136.8 132.828 167.274 134.79 156.757 162.057C147.774 185.348 130.792 202.292 143.662 218.375C156.532 234.458 157.812 252.442 138.142 274.236Z" fill="white"/>
</mask>
<g mask="url(#mask2_21_18120)">
<g opacity="0.5">
<path d="M121.164 278.143L120.35 277.977C120.444 277.427 129.687 222.364 123.76 164.764C118.299 111.699 98.4699 45.5604 35.0156 31.824L35.1767 30.9385C63.4237 37.0531 85.5225 53.8796 100.86 80.9503C113.112 102.575 121.094 130.746 124.584 164.682C130.522 222.413 121.258 277.592 121.164 278.143Z" fill="#BEB8F2"/>
<path d="M106.821 92.5631L106 92.4481C109.496 62.6457 99.2134 20.2552 99.1094 19.8305L99.9087 19.5967C100.013 20.0234 110.337 62.5859 106.821 92.5631Z" fill="#BEB8F2"/>
<path d="M96.1484 74.8306C68.3463 55.7944 42.2874 64.7825 42.0276 64.8755L41.7695 64.0182C42.0333 63.9234 68.4455 54.7967 96.5885 74.0661L96.1484 74.8306Z" fill="#BEB8F2"/>
<path d="M125.756 202.651C116.634 160.056 63.5951 149.422 63.0703 149.365L63.0975 148.464C63.6172 148.466 117.359 159.473 126.561 202.446L125.756 202.651Z" fill="#BEB8F2"/>
<path d="M126.064 184.615L125.254 184.428C130.55 157.12 157.786 138.418 158.061 138.232L158.497 138.999C158.225 139.183 131.285 157.689 126.064 184.615Z" fill="#BEB8F2"/>
<path d="M121.628 269.276C120.486 252.706 98.8434 239.509 98.625 239.377L99.0244 238.587C99.9324 239.132 121.278 252.149 122.454 269.208L121.628 269.276Z" fill="#BEB8F2"/>
<path d="M123.979 256.269L123.164 256.114C125.232 243.17 143.225 228.81 149.137 224.091C149.973 223.424 150.694 222.848 150.804 222.718L151.421 223.32C151.268 223.506 150.789 223.89 149.626 224.819C143.78 229.485 125.99 243.684 123.979 256.269Z" fill="#BEB8F2"/>
</g>
</g>
<path d="M316.222 249.893C320.537 260.057 316.424 270.224 312.478 277.066C311.537 277.072 310.99 277.357 310.039 277.61C301.456 279.887 297.43 278.729 288.704 279.417C286.826 279.566 281.247 278.039 279.005 277.243L274.849 275.679C274.849 275.679 267.472 250.956 279.063 244.128C290.655 237.299 286.217 212.694 285.245 199.275C282.608 162.866 318.681 166.176 318.722 119.094C318.733 106.571 314.914 82.6863 324.594 72.7124C335.622 61.3492 343.673 72.4961 350.763 62.9939C361.846 48.1423 379.83 42.8145 390.55 58.099C401.131 73.1839 388.275 103.213 356.316 127.348C335.186 147.495 334.856 153.526 336.519 168.215C337.684 178.503 346.681 205.305 333.878 216.007C321.074 226.709 311.289 238.274 316.222 249.893Z" fill="url(#paint2_linear_21_18120)"/>
<mask id="mask3_21_18120" style="mask-type:luminance" maskUnits="userSpaceOnUse" x="272" y="48" width="123" height="238">
<path d="M306.906 285.393L275.548 276.583C275.548 276.583 267.472 250.962 279.063 244.133C290.654 237.304 286.216 212.7 285.245 199.281C282.608 162.872 318.681 166.182 318.722 119.099C318.732 106.577 314.914 82.6922 324.594 72.7182C335.622 61.3552 343.672 72.5019 350.763 62.9997C361.846 48.1481 379.83 42.8204 390.55 58.1048C401.13 73.1897 388.274 103.218 356.315 127.353C335.186 147.501 334.855 153.532 336.519 168.221C337.683 178.509 346.681 205.31 333.878 216.013C321.074 226.715 311.288 238.279 316.221 249.899C323.727 267.579 306.906 285.393 306.906 285.393Z" fill="white"/>
</mask>
<g mask="url(#mask3_21_18120)">
<g opacity="0.5">
<path d="M293.248 279.804L292.611 279.717C293.084 275.577 293.609 271.409 294.169 267.327C298.32 237.105 304.907 208.399 313.749 182.007C321.24 159.644 330.451 138.625 341.124 119.535C349.708 104.182 359.281 89.9872 369.576 77.3447C376.814 68.4573 384.331 60.4227 391.92 53.465C393.242 52.2522 394.656 51.0926 396.024 49.9711C397.847 48.4771 399.732 46.9321 401.412 45.249L401.846 45.765C400.143 47.4712 398.245 49.0268 396.41 50.5311C395.049 51.647 393.642 52.8008 392.333 54.0012C384.768 60.9372 377.273 68.9475 370.056 77.8098C359.786 90.4209 350.237 104.582 341.673 119.899C331.021 138.951 321.829 159.928 314.351 182.247C305.525 208.595 298.949 237.255 294.804 267.43C294.244 271.507 293.721 275.669 293.248 279.804Z" fill="#FCFDFE"/>
<path d="M329.57 143.708L328.988 143.411C340.692 116.203 330.415 65.9364 330.31 65.4319L330.936 65.2764C331.041 65.7834 341.367 116.282 329.57 143.708Z" fill="#FCFDFE"/>
<path d="M302.945 222.949L302.336 222.727C308.307 203.222 341.786 188.165 342.124 188.016L342.366 188.664C342.031 188.813 308.822 203.748 302.945 222.949Z" fill="#FCFDFE"/>
<path d="M300.435 234.336L299.8 234.235C301.572 220.951 297.48 201.803 288.279 180.319C287.817 179.239 287.817 179.239 287.833 179.107L288.469 179.199L288.151 179.153L288.461 179.066C288.484 179.142 288.658 179.55 288.861 180.023C298.114 201.63 302.225 220.918 300.435 234.336Z" fill="#FCFDFE"/>
<path d="M294.209 272.261L293.627 271.966C299.335 258.556 318.847 253.264 319.043 253.212L319.194 253.892C319.001 253.944 299.787 259.158 294.209 272.261Z" fill="#FCFDFE"/>
<path d="M292.278 279.858C289.859 268.232 284.3 256.982 275.283 245.468L275.772 245.013C284.857 256.616 290.461 267.963 292.904 279.703L292.278 279.858Z" fill="#FCFDFE"/>
<path d="M364.106 85.3623L363.541 85.03C370.821 70.2984 375.339 52.9812 376.823 47.2908C377.183 45.9132 377.311 45.4289 377.382 45.2686L377.959 45.5749C377.906 45.6981 377.701 46.4856 377.441 47.4826C375.952 53.1912 371.42 70.5636 364.106 85.3623Z" fill="#FCFDFE"/>
<path d="M349.02 107.407L348.57 106.907C358.824 95.8984 387.599 96.2506 388.818 96.2709L388.808 96.9711C388.512 96.9664 359.083 96.6032 349.02 107.407Z" fill="#FCFDFE"/>
</g>
</g>
<mask id="mask4_21_18120" style="mask-type:luminance" maskUnits="userSpaceOnUse" x="258" y="112" width="164" height="239">
<path d="M265.304 337.943L302.714 350.733C302.714 350.733 315.771 332.209 310.849 314.303C300.805 277.77 330.842 270.725 343.018 265.721C361.381 258.176 374.546 242.791 355.13 227.497C335.714 212.203 368.033 183.003 399.299 175.478C429.895 168.115 435.549 104.546 367.987 113.851C327.639 119.408 321.44 162.1 313.61 182.848C305.78 203.596 276.189 195.417 278.655 224.876C280.761 250.039 292.252 271.79 275.526 282.877C258.801 293.963 252.595 310.683 265.304 337.943Z" fill="white"/>
</mask>
<g mask="url(#mask4_21_18120)">
<path d="M265.304 337.943L302.714 350.733C302.714 350.733 315.771 332.209 310.849 314.303C300.805 277.77 330.842 270.725 343.018 265.721C361.381 258.176 372.552 244.134 357.852 227.523C341.219 208.728 368.033 183.003 399.299 175.478C429.895 168.115 435.549 104.546 367.987 113.851C327.639 119.408 321.44 162.1 313.61 182.848C305.78 203.596 276.189 195.417 278.655 224.876C280.761 250.039 292.252 271.79 275.526 282.877C258.801 293.963 252.595 310.683 265.304 337.943Z" fill="url(#paint3_linear_21_18120)"/>
</g>
<mask id="mask5_21_18120" style="mask-type:luminance" maskUnits="userSpaceOnUse" x="258" y="112" width="164" height="239">
<path d="M265.304 337.943L302.714 350.733C302.714 350.733 315.771 332.209 310.849 314.303C300.805 277.77 330.842 270.725 343.018 265.721C361.381 258.176 374.546 242.791 355.13 227.497C335.714 212.203 368.033 183.003 399.299 175.478C429.895 168.115 435.549 104.546 367.987 113.851C327.639 119.408 321.44 162.1 313.61 182.848C305.78 203.596 276.189 195.417 278.655 224.876C280.761 250.039 292.252 271.79 275.526 282.877C258.801 293.963 252.595 310.683 265.304 337.943Z" fill="white"/>
</mask>
<g mask="url(#mask5_21_18120)">
<g opacity="0.5">
<path d="M280.406 347.266L281.228 347.376C281.29 346.821 287.743 291.287 309.359 238.337C329.273 189.556 366.508 133.051 430.8 140.882L430.892 139.985C402.272 136.499 376.543 145.251 354.42 165.997C336.747 182.57 321.33 206.79 308.596 237.987C286.934 291.059 280.469 346.71 280.406 347.266Z" fill="#BEB8F2"/>
<path d="M345.518 175.102L346.332 175.263C351.261 145.702 372.812 108.686 373.029 108.316L372.332 107.829C372.114 108.201 350.475 145.368 345.518 175.102Z" fill="#BEB8F2"/>
<path d="M360.608 161.72C392.386 152.742 414.734 169.903 414.955 170.077L415.439 169.345C415.214 169.168 392.568 151.759 360.4 160.846L360.608 161.72Z" fill="#BEB8F2"/>
<path d="M296.957 273.794C317.459 236.2 370.964 243.553 371.479 243.672L371.703 242.804C371.207 242.635 316.929 235.405 296.246 273.332L296.957 273.794Z" fill="#BEB8F2"/>
<path d="M301.658 256.502L302.482 256.591C305.003 228.815 284.226 202.007 284.015 201.739L283.387 202.326C283.595 202.591 304.144 229.114 301.658 256.502Z" fill="#BEB8F2"/>
<path d="M282.42 338.66C288.102 323.242 312.39 317.8 312.635 317.746L312.473 316.861C311.456 317.082 287.501 322.451 281.652 338.324L282.42 338.66Z" fill="#BEB8F2"/>
<path d="M283.786 325.488L284.606 325.609C286.223 312.59 273.052 292.968 268.725 286.52C268.113 285.609 267.585 284.822 267.516 284.662L266.762 285.033C266.856 285.261 267.205 285.785 268.057 287.053C272.336 293.429 285.358 312.83 283.786 325.488Z" fill="#BEB8F2"/>
</g>
</g>
<path d="M300.715 348.28C300.575 348.352 300.435 348.423 300.294 348.493C291.974 352.671 282.204 355.635 270.718 356.434C268.469 356.417 266.22 356.401 263.971 356.384C261.945 350.621 260.964 344.744 267.748 342.282C278.284 338.459 277.97 318.053 274.853 310.935C270.995 302.124 262.399 281.407 278.601 275.217C292.089 270.064 301.759 269.746 302.177 250.587C302.595 231.429 311.832 219.177 327.768 219.784C344.538 220.424 357.581 195.668 371.52 203.338C395.808 216.704 375.344 259.575 346.63 272.754C317.917 285.934 334.903 296.798 336.126 312.424C337.794 333.757 311.18 330.075 304.419 338.703C302.128 341.625 301.069 344.974 300.715 348.28Z" fill="url(#paint4_linear_21_18120)"/>
<mask id="mask6_21_18120" style="mask-type:luminance" maskUnits="userSpaceOnUse" x="262" y="201" width="121" height="160">
<path d="M301.816 360.033L265.341 360.936C263.099 355.357 260.17 345.035 267.748 342.285C278.284 338.462 277.97 318.056 274.853 310.938C270.995 302.127 262.399 281.41 278.601 275.22C292.089 270.067 301.759 269.749 302.177 250.59C302.595 231.432 311.832 219.18 327.768 219.787C344.537 220.427 357.581 195.671 371.52 203.341C395.807 216.707 375.343 259.578 346.63 272.757C317.916 285.936 334.903 296.801 336.126 312.427C337.794 333.76 311.18 330.077 304.419 338.705C299.118 345.469 300.39 354.517 301.816 360.033Z" fill="white"/>
</mask>
<g mask="url(#mask6_21_18120)">
<g opacity="0.5">
<path d="M284.511 354.198L283.732 354.051C293.608 291.935 331.074 235.35 381.511 206.379L381.88 207.142C331.655 235.991 294.346 292.34 284.511 354.198Z" fill="#FCFDFE"/>
<path d="M292.555 320.836L291.765 320.86C291.15 296.093 271.231 277.362 271.029 277.176L271.541 276.519C271.745 276.707 291.93 295.679 292.555 320.836Z" fill="#FCFDFE"/>
<path d="M286.614 342.826L285.908 342.438C296.29 320.017 338.041 315.653 338.462 315.611L338.533 316.47C338.117 316.511 296.798 320.831 286.614 342.826Z" fill="#FCFDFE"/>
<path d="M319.291 266.357L318.557 266.036C325.371 247.548 313.737 219.752 313.619 219.473L314.336 219.11C314.456 219.392 326.231 247.527 319.291 266.357Z" fill="#FCFDFE"/>
<path d="M343.778 236.528L343.346 235.806C360.779 223.397 388.401 229.151 388.678 229.211L388.525 230.057C388.251 229.998 360.94 224.312 343.778 236.528Z" fill="#FCFDFE"/>
</g>
</g>
<path d="M317.111 18.6762V437.547C317.111 443.811 312.204 445.159 306.641 445.358L115.949 456.114L113.06 456.217C107.132 456.428 102.273 451.299 102.273 444.817V11.4057C102.273 4.92441 107.132 -0.205191 113.06 0.00631288L116.98 0.146147L308.371 16.382C313.934 16.5805 317.111 12.4122 317.111 18.6762Z" fill="url(#paint5_linear_21_18120)"/>
<path d="M323.052 18.6762V437.547C323.052 443.811 318.508 449.098 312.944 449.297L119.001 456.217C113.073 456.428 108.215 451.299 108.215 444.817V11.4057C108.215 4.92441 113.073 -0.205191 119.001 0.00631288L312.944 6.92645C318.508 7.12495 323.052 12.4122 323.052 18.6762Z" fill="url(#paint6_linear_21_18120)"/>
<path d="M316.776 41.7025V429.737C316.776 435.585 312.528 440.515 307.33 440.693L124.962 446.942C119.444 447.131 114.922 442.345 114.922 436.306V35.6287C114.922 29.59 119.444 24.793 124.962 24.9685L307.33 30.769C312.529 30.9343 316.776 35.8544 316.776 41.7025Z" fill="url(#paint7_linear_21_18120)"/>
<path d="M221.067 16.5025C221.067 18.7098 219.455 20.4458 217.465 20.3801C215.474 20.3145 213.859 18.4698 213.859 16.2602C213.859 14.0505 215.474 12.3146 217.465 12.3828C219.455 12.4508 221.067 14.2953 221.067 16.5025Z" fill="#DE8BDF"/>
<path d="M288.473 277.348L142.824 279.478C140.982 279.505 139.488 277.897 139.488 275.887V241.102C139.488 239.091 140.982 237.45 142.824 237.437L288.473 236.362C290.222 236.349 291.639 237.926 291.639 239.884V273.757C291.639 275.715 290.222 277.322 288.473 277.348Z" fill="#F4F7FA"/>
<path d="M288.142 341.423L143.172 345.186C141.138 345.239 139.488 343.482 139.488 341.261V307.237C139.488 305.016 141.138 303.185 143.172 303.147L288.142 300.435C290.074 300.399 291.639 302.123 291.639 304.285V337.417C291.639 339.58 290.074 341.373 288.142 341.423Z" fill="#F4F7FA"/>
<path d="M273.766 132.424C273.766 167.339 248.302 195.647 216.574 195.653C184.491 195.658 158.217 166.782 158.217 131.156C158.217 95.5291 184.491 67.2297 216.574 67.9398C248.302 68.6422 273.766 97.5096 273.766 132.424Z" fill="white"/>
<path d="M240.156 112.872C240.156 127.259 229.624 138.813 216.59 138.68C203.509 138.546 192.869 126.697 192.869 112.216C192.869 97.7345 203.509 86.1812 216.59 86.4106C229.624 86.6391 240.156 98.486 240.156 112.872Z" fill="url(#paint8_linear_21_18120)"/>
<path d="M216.574 195.654C230.599 195.652 243.393 190.121 253.299 180.96C249.928 161.941 234.817 147.476 216.574 147.325C198.215 147.174 182.828 161.555 179.373 180.782C189.503 190.079 202.48 195.657 216.574 195.654Z" fill="url(#paint9_linear_21_18120)"/>
<path d="M236.624 262.553L157.133 263.499C154.429 263.531 152.215 261.136 152.215 258.176C152.215 255.217 154.429 252.773 157.133 252.746L236.624 251.947C239.252 251.921 241.401 254.284 241.401 257.198C241.401 260.112 239.252 262.522 236.624 262.553Z" fill="url(#paint10_linear_21_18120)"/>
<path d="M164.107 323.608C164.107 327.389 161.307 330.52 157.849 330.602C154.388 330.683 151.578 327.677 151.578 323.887C151.578 320.097 154.388 316.966 157.849 316.893C161.307 316.82 164.107 319.826 164.107 323.608Z" fill="url(#paint11_linear_21_18120)"/>
<path d="M187.545 323.086C187.545 326.852 184.767 329.97 181.338 330.051C177.904 330.131 175.117 327.137 175.117 323.363C175.117 319.589 177.904 316.47 181.338 316.398C184.767 316.325 187.545 319.319 187.545 323.086Z" fill="url(#paint12_linear_21_18120)"/>
<path d="M210.792 322.566C210.792 326.317 208.037 329.423 204.635 329.503C201.229 329.583 198.465 326.6 198.465 322.841C198.465 319.082 201.229 315.977 204.635 315.905C208.037 315.833 210.792 318.815 210.792 322.566Z" fill="url(#paint13_linear_21_18120)"/>
<path d="M233.853 322.053C233.853 325.788 231.12 328.881 227.746 328.96C224.367 329.04 221.625 326.069 221.625 322.325C221.625 318.582 224.367 315.489 227.746 315.417C231.12 315.346 233.853 318.317 233.853 322.053Z" fill="url(#paint14_linear_21_18120)"/>
<path d="M256.73 321.541C256.73 325.262 254.019 328.342 250.671 328.421C247.319 328.499 244.6 325.541 244.6 321.812C244.6 318.083 247.319 315.003 250.671 314.932C254.019 314.861 256.73 317.82 256.73 321.541Z" fill="url(#paint15_linear_21_18120)"/>
<path d="M216.566 197.203C200.653 197.203 185.663 190.333 174.355 177.856C163.032 165.365 156.797 148.78 156.797 131.156C156.797 113.384 163.123 96.8347 174.61 84.5576C185.898 72.493 200.807 66.0371 216.604 66.3908C232.311 66.7386 247.045 73.8006 258.091 86.2761C269.116 98.7279 275.188 115.117 275.188 132.425C275.188 149.738 269.113 166.001 258.082 178.218C247.029 190.458 232.288 197.201 216.576 197.203C216.573 197.203 216.569 197.203 216.566 197.203ZM215.388 69.4773C200.795 69.4773 187.062 75.5899 176.6 86.7718C165.662 98.4611 159.639 114.224 159.639 131.156C159.639 147.958 165.583 163.77 176.376 175.677C187.146 187.559 201.42 194.103 216.566 194.104C216.57 194.104 216.572 194.104 216.575 194.104C247.327 194.098 272.346 166.429 272.346 132.425C272.346 98.4036 247.315 70.1712 216.547 69.4901C216.16 69.4815 215.772 69.4773 215.388 69.4773Z" fill="white"/>
<path opacity="0.3" d="M323.051 18.4366C323.051 12.2206 318.53 7.12535 312.834 6.92218L207.07 3.14844C246.301 48.4927 255.122 86.5359 256.129 112.534C259.003 186.741 200.39 219.073 211.288 300.227C214.276 322.475 220.883 336.447 223.464 374.88C225.664 407.645 223.365 434.765 221.073 452.574L312.943 449.296C318.507 449.098 323.051 443.81 323.051 437.546L323.051 18.4366Z" fill="url(#paint16_linear_21_18120)"/>
<path opacity="0.3" d="M166.457 227.494C167.572 191.749 156.343 176.806 153.367 173.145C151.265 170.56 149.318 168.728 134.786 155.643C123.989 145.921 114.991 137.862 108.604 132.153C108.475 232.29 108.345 332.426 108.215 432.563C112.566 394.127 120.928 365.14 127.291 346.631C145.101 294.818 165.027 273.359 166.457 227.494Z" fill="url(#paint17_linear_21_18120)"/>
<path d="M353.174 369.82C359.535 365.628 356.869 343.42 347.519 328.12C334.243 306.396 306.453 296.9 301.058 303.752C295.536 310.764 312.972 335.529 315.805 339.551C326.079 354.144 345.649 374.778 353.174 369.82Z" fill="url(#paint18_linear_21_18120)"/>
<path d="M425.406 461.682C424.315 463.255 424.259 465.964 425.418 467.183C426.558 468.381 428.032 467.256 432.451 466.972C437.185 466.667 438.517 467.763 441.646 466.486C442.91 465.969 445.122 464.799 444.996 463.794C444.908 463.087 443.712 462.834 439.704 461.789C434.014 460.308 434.029 460.195 432.839 460.097C429.848 459.851 426.846 459.604 425.406 461.682Z" fill="url(#paint19_linear_21_18120)"/>
<path d="M425.317 453.168L430.288 460.359C430.267 460.861 428.49 463.222 426.234 463.09L420.262 456.573L425.317 453.168Z" fill="url(#paint20_linear_21_18120)"/>
<path d="M399.722 479.987C398.662 481.586 398.658 484.295 399.84 485.487C401.002 486.659 402.455 485.501 406.868 485.115C411.594 484.701 412.947 485.767 416.051 484.418C417.305 483.873 419.493 482.652 419.348 481.65C419.246 480.945 418.046 480.719 414.018 479.767C408.301 478.416 408.315 478.304 407.122 478.233C404.128 478.055 401.121 477.877 399.722 479.987Z" fill="url(#paint21_linear_21_18120)"/>
<path d="M399.529 471.644L404.501 478.835C404.479 479.336 402.703 481.698 400.447 481.565L394.475 475.048L399.529 471.644Z" fill="url(#paint22_linear_21_18120)"/>
<path d="M249.007 307.319C256.448 304.21 267.854 300.485 282.04 299.908C298.013 299.258 310.84 298.736 319.979 306.609C350.386 332.801 335.481 401.824 333.284 409.503C330.67 418.635 325.698 424.838 325.698 424.838C322.716 428.56 319.789 430.733 318.204 431.877C295.331 448.385 281.112 458.646 266.099 454.454C264.102 453.896 255.025 450.462 250.015 442.225C249.121 440.757 248.563 438.875 248.422 436.246C246.09 392.797 250.788 349.171 249.007 307.319Z" fill="url(#paint23_linear_21_18120)"/>
<path opacity="0.3" d="M262.121 359.105C259.07 350.008 262.223 339.591 255.427 335.048C252.937 333.383 249.843 332.679 246.473 332.761C246.89 364.743 247.481 396.695 248.209 430.072C248.449 441.096 249.713 441.641 259.515 451.297C270.872 462.485 280.218 458.878 296.995 455.206C275.013 440.477 269.547 432.468 271.787 419.379C274.395 404.136 299.985 399.622 298.95 388.785C297.854 377.301 268.79 378.993 262.121 359.105Z" fill="url(#paint24_linear_21_18120)"/>
<path d="M256.021 307.897C248.47 303.297 231.107 316.383 221.62 327.666C217.21 332.909 201.858 351.166 206.633 374.655C207.411 378.483 211.004 396.381 226.993 404.567C241.308 411.898 260.203 409.091 275.014 397.278C277.029 395.381 279.043 393.485 281.058 391.588C283.026 389.333 284.995 387.078 286.963 384.823C283.662 382.327 278.075 378.761 270.329 376.642C258.525 373.413 253.213 377.936 250.296 374.431C246.705 370.115 254.711 362.675 256.81 343.678C257.376 338.552 264.455 313.035 256.021 307.897Z" fill="url(#paint25_linear_21_18120)"/>
<path d="M269.731 449.205C270.66 467.306 276.899 457.28 291.022 441.039C305.897 423.935 340.894 393.873 364.254 405.35C381.651 413.897 379.963 439.183 407.776 455.053C412.675 457.848 416.964 459.451 419.6 460.322C422.613 457.283 425.626 454.244 428.639 451.204C427.022 441.752 419.804 405.711 389.629 382.992C382.333 377.5 368.411 366.92 350.805 367.167C303.209 367.837 268.873 432.512 269.731 449.205Z" fill="url(#paint26_linear_21_18120)"/>
<path d="M247.802 440.809C248.001 451.341 254.306 460.994 261.409 465.708C277.177 476.17 300.79 464.881 314.016 453.337C330.11 439.292 330.104 425.53 338.328 425.598C351.106 425.703 353.334 459.03 381.85 475.301C386.749 478.097 391.038 479.699 393.674 480.571C396.687 477.531 399.7 474.492 402.712 471.452C397.767 451.043 390.111 436.214 384.466 426.984C377.423 415.471 370.645 404.39 357.518 396.359C343.696 387.903 330.49 387.511 324.879 387.415C289.485 386.813 247.282 413.332 247.802 440.809Z" fill="url(#paint27_linear_21_18120)"/>
<path d="M343.883 377.547L256.266 394.78L281.692 402.048L345.222 383.711L343.883 377.547Z" fill="url(#paint28_linear_21_18120)"/>
<path d="M253.637 397.969L253.637 397.97C253.957 399.753 255.266 401.128 256.912 401.409L286.97 407.384L285.612 399.081L256.266 394.779C254.634 394.625 253.322 396.217 253.637 397.969Z" fill="url(#paint29_linear_21_18120)"/>
<path d="M267.715 390.47C267.155 390.454 269.075 382.94 271.689 383.202C274.301 383.464 287.761 388.523 289.424 391.435C291.088 394.347 291.088 394.347 291.088 394.347C291.088 394.347 285.896 395.922 282.41 395.422C278.925 394.922 272.265 390.6 267.715 390.47Z" fill="url(#paint30_linear_21_18120)"/>
<path d="M282.926 339.447L281.003 402.101C280.937 404.263 283.911 407.229 285.88 406.963L377.238 393.201C378.741 392.998 379.912 391.683 380.054 390.039L387.389 329.071C387.581 326.858 383.824 324.901 381.797 325.132L285.816 336.063C284.213 336.246 282.98 337.69 282.926 339.447Z" fill="url(#paint31_linear_21_18120)"/>
<path d="M285.15 341.084L283.226 403.739C283.161 405.901 284.881 407.616 286.849 407.351L379.462 394.839C380.965 394.636 382.136 393.321 382.279 391.677L387.57 330.602C387.761 328.389 386.048 326.539 384.021 326.77L288.04 337.701C286.437 337.883 285.203 339.327 285.15 341.084Z" fill="url(#paint32_linear_21_18120)"/>
<path opacity="0.3" d="M342.984 383.221C334.606 380.143 336.972 372.751 326.766 364.631C313.302 353.919 300.771 360.089 295.624 351.347C294.021 348.624 293.042 344.262 294.99 336.909L288.04 337.701C286.437 337.883 285.203 339.327 285.15 341.084L283.226 403.739C283.161 405.901 284.881 407.616 286.849 407.351L379.462 394.839C380.965 394.636 382.136 393.321 382.279 391.677L383.009 383.249C380.069 381.771 376.591 380.494 372.598 379.95C358.751 378.065 352.629 386.765 342.984 383.221Z" fill="url(#paint33_linear_21_18120)"/>
<path d="M282.716 276.047C282.987 282.503 282.502 287.652 281.998 291.186C281.42 295.234 280.94 296.293 280.31 297.162C280.31 297.162 280.111 297.438 279.884 297.685C279.306 298.314 272.043 299.857 269.903 300.402C269.676 300.46 265.484 301.571 264.281 304.03C264.272 304.047 264.249 304.095 264.236 304.168C263.822 306.626 276.698 314.422 289.637 311.889C297.556 310.338 304.63 305.089 304.096 302.505C303.559 299.906 295.655 301.635 293.122 296.995C291.36 293.767 293.048 289.014 295.1 285.052C292.836 280.814 284.98 280.285 282.716 276.047Z" fill="url(#paint34_linear_21_18120)"/>
<path d="M299.704 283.576C304.764 281.974 308.028 262.969 303.771 260.672C301.735 259.573 300.227 263.509 292.113 267.03C285.618 269.848 282.874 268.937 281.076 272.046C279.3 275.117 280.392 279.563 280.951 282.717C281.194 284.085 282.006 284.73 282.646 285.875C283.533 287.462 284.916 289.979 287.155 294.17C287.592 293.198 288.197 292.01 289.029 290.764C289.35 290.284 290.624 288.418 294.393 285.625C296.801 283.84 299.125 283.76 299.704 283.576Z" fill="url(#paint35_linear_21_18120)"/>
<path d="M283.547 290.23C283.547 290.23 285.631 296.863 292.229 297.969C298.137 298.959 301.874 284.919 298.767 280.999C297.73 279.692 295.329 278.674 293.183 278.805C291.915 278.883 291.402 279.326 289.328 279.408C287.416 279.484 286.949 279.143 286.302 279.512C285.492 279.975 284.68 281.391 284.977 285.83C284.114 284.336 282.876 283.544 281.832 283.803C281.666 283.844 281.206 284.044 280.89 284.44C279.746 285.87 280.688 288.276 283.547 290.23Z" fill="url(#paint36_linear_21_18120)"/>
<path d="M286.212 278.596C286.447 278.892 285.357 279.829 284.965 281.431C284.205 284.541 286.356 289.012 289.263 290.048C290.983 290.66 291.7 289.621 294.673 289.986C296.514 290.212 297.961 290.823 298.857 291.274C299.073 294.938 297.519 298.165 295.086 299.249C292.466 300.417 289.774 298.677 288.649 297.95C287.896 297.463 285.483 295.91 284.65 292.981C283.783 289.928 285.503 288.628 284.25 286.403C283.617 285.281 282.622 284.621 281.936 282.577C281.75 282.022 281.647 281.546 281.59 281.229C283.444 279.854 285.872 278.167 286.212 278.596Z" fill="url(#paint37_linear_21_18120)"/>
<path d="M296.484 292.04C296.484 292.04 295.081 292.454 292.935 291.797C292.83 291.765 292.707 291.771 292.681 291.827C292.586 292.04 293.776 293.384 295.14 293.3C296.109 293.24 297.01 292.469 296.936 292.2C296.904 292.086 296.695 292.05 296.484 292.04Z" fill="url(#paint38_linear_21_18120)"/>
<path d="M7.2598 216.772C4.83164 208.992 6.53227 200.049 10.2796 193.797C16.6122 183.234 24.866 186.906 33.1329 175.192C38.4805 167.614 43.347 161.143 49.2848 156.297C53.6528 152.732 63.9891 148.693 68.0269 151.496C80.1084 159.884 57.9415 231.305 33.5019 235.371C23.723 236.998 10.9098 228.466 7.2598 216.772Z" fill="url(#paint39_linear_21_18120)"/>
<path d="M53.6212 442.311C54.2661 443.812 54.9947 446.011 55.1871 448.748C55.2714 449.947 55.2377 451.035 55.15 451.978C54.4408 453.118 51.1249 457.033 46.6471 457.999C43.877 458.597 39.3862 456.036 44.4734 452.569C49.5606 449.102 50.321 448.267 48.8257 439.406C48.4411 437.126 48.5923 436.292 48.9205 436.131C49.6873 435.757 51.8722 439.253 53.6212 442.311Z" fill="url(#paint40_linear_21_18120)"/>
<path d="M77.0821 449.081C77.727 450.582 78.4556 452.781 78.648 455.517C78.7323 456.717 78.6986 457.804 78.6108 458.747C77.9017 459.887 74.586 463.802 70.108 464.769C67.3379 465.367 62.8471 462.805 67.9344 459.338C73.0217 455.871 73.782 455.037 72.2868 446.175C71.9022 443.895 72.0533 443.061 72.3815 442.901C73.1483 442.526 75.3331 446.023 77.0821 449.081Z" fill="url(#paint41_linear_21_18120)"/>
<path d="M101.48 263.941C103.162 275.112 104.844 286.284 106.526 297.455C102.842 308.023 99.4166 319.539 96.514 331.974C86.0295 376.896 79.4917 420.162 79.0136 451.154C76.7057 452.065 74.3978 452.975 72.0899 453.886C67.9545 436.855 69.2041 411.103 65.5274 380.735C61.1838 344.858 64.1375 316.811 62.6253 316.712C61.176 316.618 57.1171 342.295 57.1097 371.618C57.1019 402.615 53.833 427.57 55.94 445.486C53.1747 445.666 50.4096 445.846 47.6444 446.026C39.9867 422.334 36.6408 394.106 32.764 356.78C30.0718 330.86 26.8944 296.425 42.7714 260.899C44.3568 257.351 49.8917 249.476 50.9295 247.53C69.1364 251.33 83.2733 260.141 101.48 263.941Z" fill="url(#paint42_linear_21_18120)"/>
<path opacity="0.25" d="M96.5141 331.974C99.4166 319.538 102.842 308.023 106.526 297.455C104.844 286.284 103.162 275.112 101.48 263.941C83.2734 260.141 69.1365 251.33 50.9298 247.53C49.892 249.476 44.3571 257.351 42.7717 260.899C37.4196 272.875 34.2389 284.725 32.4688 296.168C67.693 295.749 77.8869 303.749 80.6932 311.123C85.1608 322.863 71.5735 334.767 76.3808 358.525C77.8265 365.67 79.9857 369.191 80.2392 378.142C80.5719 389.888 77.0571 391.027 76.5067 402.975C75.9045 416.048 71.7532 428.825 73.6996 438.092C74.9097 443.853 76.3268 448.537 77.4158 451.785C77.9484 451.574 78.481 451.364 79.0138 451.154C79.4918 420.161 86.0297 376.896 96.5141 331.974Z" fill="url(#paint43_linear_21_18120)"/>
<path d="M86.3888 108.909C87.5182 110.555 85.8403 112.764 85.5054 120.804C85.3521 124.482 85.5553 127.566 85.7827 129.756C85.8467 131.738 85.9494 133.575 86.0912 135.199C86.1953 136.39 86.3065 137.321 86.4635 138.311C86.754 140.149 87.1705 141.971 87.7008 143.727C87.7359 143.843 87.6834 143.968 87.5824 144.015C87.5764 144.018 87.5701 144.021 87.5639 144.023C87.4511 144.064 87.3298 143.997 87.2926 143.874C86.7557 142.096 86.3341 140.251 86.0396 138.391C85.8808 137.388 85.7682 136.447 85.6632 135.243C85.5885 134.388 85.5254 133.469 85.4721 132.507C85.2308 135.042 85.1812 137.841 86.0075 141.58C88.5148 152.926 80.4403 160.394 74.0764 160.695C66.7372 161.041 61.7623 154.698 60.2238 152.622C54.0226 144.255 52.8289 130.62 58.661 120.648C66.3009 107.585 83.6209 104.875 86.3888 108.909Z" fill="url(#paint44_linear_21_18120)"/>
<path d="M67.8283 119.832C68.1423 118.564 69.5625 113.393 73.902 110.151C82.1356 104 95.3332 108.936 102.9 116.179C110.818 123.759 107.525 129.002 115.309 137.418C123.762 146.558 129.695 142.566 141.445 151.396C146.067 154.869 158.522 164.229 159.354 178.83C160.074 191.448 151.893 204.082 141.882 208.957C124.745 217.303 103.283 202.399 93.1572 188.693C83.4453 175.548 89.9983 172.33 76.1902 146.943C71.1976 137.763 65.4818 129.309 67.8283 119.832Z" fill="url(#paint45_linear_21_18120)"/>
<path d="M55.4781 156.633C49.2179 163.545 47.5323 171.856 47.039 175.57C45.5046 187.124 49.6652 196.548 50.6422 199.023C55.2586 210.72 53.5582 233.774 26.6484 283.418C29.2063 285.743 38.0256 302.957 42.1969 294.703C47.8839 283.448 73.684 204.26 48.8006 298.102C48.4726 299.338 51.0084 299.09 52.1612 299.559C60.4262 302.925 70.3522 305.376 81.6302 305.222C99.3064 304.982 112.775 298.448 119.896 294.248C115.068 281.969 110.013 265.352 107.85 245.184C103.725 206.71 112.309 175.682 118.292 158.95C112.836 154.837 95.5572 142.924 75.1131 146.774C70.0197 147.733 62.072 149.353 55.4781 156.633Z" fill="url(#paint46_linear_21_18120)"/>
<path opacity="0.3" d="M107.852 245.184C103.726 206.71 112.311 175.681 118.294 158.95C112.838 154.837 95.5589 142.924 75.1149 146.774C70.0209 147.733 62.0733 149.353 55.4795 156.634C50.4951 162.137 48.4149 168.519 47.5234 172.77C47.6761 172.742 47.8865 172.705 48.1373 172.667C60.7279 170.77 75.2692 181.818 80.2404 192.269C88.5365 209.71 69.4523 223.961 69.9297 251.601C70.1878 266.543 76.1417 284.211 94.344 303.94C105.786 301.785 114.601 297.372 119.897 294.248C115.069 281.969 110.014 265.352 107.852 245.184Z" fill="url(#paint47_linear_21_18120)"/>
<path d="M79.8953 132.936C78.1016 136.906 76.5871 141.873 78.5621 145.205C79.7654 147.235 81.7569 148.366 83.7238 149.431C88.3716 151.95 90.5286 150.927 91.446 152.455C93.4653 155.818 87.7477 168.65 78.4214 169.765C69.1399 170.874 60.7402 159.844 62.1372 155.185C63.3977 150.982 72.5349 152.299 74.1682 146.987C74.9907 144.313 73.4852 141.343 72.164 139.331L71.0709 139.436L79.8953 132.936Z" fill="url(#paint48_linear_21_18120)"/>
<path opacity="0.4" d="M91.4456 152.455C90.5281 150.927 88.3712 151.949 83.7233 149.431C81.7565 148.366 79.7651 147.234 78.5618 145.205C76.5869 141.873 78.1013 136.906 79.8949 132.936L71.0703 139.435L72.1634 139.331C73.2119 140.928 74.3571 143.127 74.3817 145.305C75.0232 145.788 75.5649 146.319 75.9488 146.835C74.7315 149.699 74.3186 152.171 74.1603 153.77C73.9133 156.263 73.7301 158.115 74.7109 159.865C75.7808 161.774 77.6091 162.442 79.2075 163.027C82.7591 164.327 86.0778 163.895 88.2583 163.325C91.2728 159.217 92.5794 154.343 91.4456 152.455Z" fill="url(#paint49_linear_21_18120)"/>
<path d="M78.2667 136.761C78.2667 136.761 78.5754 141.86 74.0261 142.714C68.4207 143.765 65.3313 127.732 66.5547 126.561C67.9732 125.204 69.7575 127.573 73.3002 125.99C74.792 125.323 75.7997 122.905 76.9438 125.106C78.2453 127.61 78.2112 132.468 78.2112 132.468C78.2112 132.468 79.3611 131.027 79.7861 132.432C80.3422 134.271 79.2238 135.687 78.2667 136.761Z" fill="url(#paint50_linear_21_18120)"/>
<path d="M69.9038 118.192C67.9187 119.986 66.5603 123.749 67.6198 125.837C69.1418 128.837 74.7065 126.513 76.5437 130.18C77.3492 131.788 77.0963 133.864 77.5911 133.886C78.0009 133.904 78.3785 132.488 78.7259 131.327C80.6404 124.928 82.2058 124.362 81.9282 122.437C81.3635 118.523 73.9797 114.509 69.9038 118.192Z" fill="url(#paint51_linear_21_18120)"/>
<path d="M102.846 158.398C109.028 158.825 109.649 156.803 116.492 162.271C136.143 177.972 148.889 222.258 129.403 243.663C118.565 255.569 98.7866 262.837 81.9605 253.751C68.263 246.354 63.2111 231.73 61.9844 227.814C62.2098 223.888 62.4353 219.963 62.6607 216.038C70.3547 225.091 76.9642 227.378 81.7588 227.658C89.9199 228.135 93.3102 222.822 107.27 221.983C112.708 221.657 115.746 222.249 116.38 220.636C117.691 217.299 105.823 211.922 100.233 202.031C96.1589 194.82 93.6902 182.145 102.846 158.398Z" fill="url(#paint52_linear_21_18120)"/>
<path d="M78.7269 125.276C77.3332 126.627 79.6098 131.878 84.2198 142.326C87.0572 148.757 88.4759 151.972 89.4482 153.403C94.6838 161.106 104.13 167.652 114.262 168.18C121.214 168.542 122.502 165.758 128.07 167.43C136.471 169.951 140.601 178.405 141.028 178.033C141.5 177.622 136.939 166.883 126.655 157.195C118.24 149.269 115.576 151.072 102.23 139.902C101.261 139.092 97.1642 135.642 91.3346 131.623C84.4814 126.897 80.1133 123.932 78.7269 125.276Z" fill="url(#paint53_linear_21_18120)"/>
<path d="M24.0202 184.425L38.3108 222.985C38.5532 223.699 39.084 224.252 39.7495 224.482L56.2236 230.189C57.9252 230.779 59.554 229.089 59.0993 227.206L50.2925 190.75C50.091 189.916 49.5144 188.064 48.0557 187.559L27.9894 181.233C26.2009 180.655 23.3732 182.517 24.0202 184.425Z" fill="url(#paint54_linear_21_18120)"/>
<path d="M23.8402 185.036L36.4933 222.355C36.7357 223.07 37.2665 223.622 37.932 223.853L54.406 229.56C56.1079 230.149 57.7366 228.459 57.2816 226.576L48.4749 190.12C48.2733 189.286 47.6871 188.627 46.9287 188.382L26.6082 181.811C24.8198 181.233 23.1932 183.128 23.8402 185.036Z" fill="url(#paint55_linear_21_18120)"/>
<path d="M63.5385 219.195L61.8053 217.43C61.8053 217.43 59.3428 213.756 57.4874 211.977C55.6321 210.198 53.815 209.839 51.8452 211.551C49.8753 213.264 51.5487 216.096 52.9726 218.567C53.839 220.07 56.2808 221.023 58.3133 221.6C59.7422 222.005 62.2448 224.04 62.2448 224.04L63.5385 219.195Z" fill="url(#paint56_linear_21_18120)"/>
<path d="M25.7638 202.325L27.3952 200.449C27.3952 200.449 30.784 197.793 32.43 195.784C34.0764 193.775 34.4199 191.796 32.8661 189.634C31.3122 187.471 28.7022 189.273 26.4254 190.806C25.0401 191.739 24.1465 194.395 23.6016 196.607C23.2183 198.162 21.332 200.875 21.332 200.875L25.7638 202.325Z" fill="url(#paint57_linear_21_18120)"/>
<path d="M21.0576 198.534C23.1699 199.683 25.2826 200.832 27.3949 201.981C28.0414 202.878 35.738 213.898 31.6293 224.466C31.0948 225.84 29.0738 231.038 25.0887 231.958C18.9387 233.379 9.97943 224.184 10.2685 214.313C10.4622 207.698 14.7859 201.621 21.0576 198.534Z" fill="url(#paint58_linear_21_18120)"/>
<defs>
<linearGradient id="paint0_linear_21_18120" x1="69.1648" y1="88.7527" x2="125.327" y2="251.351" gradientUnits="userSpaceOnUse">
<stop stop-color="#FF9085"/>
<stop offset="1" stop-color="#FB6FBB"/>
</linearGradient>
<linearGradient id="paint1_linear_21_18120" x1="69.537" y1="25.1035" x2="159.641" y2="262.469" gradientUnits="userSpaceOnUse">
<stop stop-color="#FFC444"/>
<stop offset="0.9964" stop-color="#F36F56"/>
</linearGradient>
<linearGradient id="paint2_linear_21_18120" x1="373.033" y1="43.9821" x2="242.038" y2="306.553" gradientUnits="userSpaceOnUse">
<stop stop-color="#AA80F9"/>
<stop offset="0.9964" stop-color="#6165D7"/>
</linearGradient>
<linearGradient id="paint3_linear_21_18120" x1="399.758" y1="123.095" x2="242.898" y2="315.418" gradientUnits="userSpaceOnUse">
<stop offset="0.0036" stop-color="#E38DDD"/>
<stop offset="1" stop-color="#9571F6"/>
</linearGradient>
<linearGradient id="paint4_linear_21_18120" x1="350.254" y1="212.316" x2="259.977" y2="355.82" gradientUnits="userSpaceOnUse">
<stop stop-color="#FFC444"/>
<stop offset="0.9964" stop-color="#F36F56"/>
</linearGradient>
<linearGradient id="paint5_linear_21_18120" x1="361.929" y1="374.808" x2="164.93" y2="220.733" gradientUnits="userSpaceOnUse">
<stop stop-color="#444B8C"/>
<stop offset="0.9964" stop-color="#26264F"/>
</linearGradient>
<linearGradient id="paint6_linear_21_18120" x1="208.468" y1="434.572" x2="238.428" y2="-303.86" gradientUnits="userSpaceOnUse">
<stop stop-color="#444B8C"/>
<stop offset="0.9964" stop-color="#26264F"/>
</linearGradient>
<linearGradient id="paint7_linear_21_18120" x1="114.922" y1="235.956" x2="316.776" y2="235.956" gradientUnits="userSpaceOnUse">
<stop stop-color="#FF9085"/>
<stop offset="1" stop-color="#FB6FBB"/>
</linearGradient>
<linearGradient id="paint8_linear_21_18120" x1="178.345" y1="27.4247" x2="381.36" y2="408.025" gradientUnits="userSpaceOnUse">
<stop stop-color="#AA80F9"/>
<stop offset="0.9964" stop-color="#6165D7"/>
</linearGradient>
<linearGradient id="paint9_linear_21_18120" x1="154.076" y1="40.3714" x2="357.092" y2="420.972" gradientUnits="userSpaceOnUse">
<stop stop-color="#AA80F9"/>
<stop offset="0.9964" stop-color="#6165D7"/>
</linearGradient>
<linearGradient id="paint10_linear_21_18120" x1="109.926" y1="63.9218" x2="312.942" y2="444.523" gradientUnits="userSpaceOnUse">
<stop stop-color="#AA80F9"/>
<stop offset="0.9964" stop-color="#6165D7"/>
</linearGradient>
<linearGradient id="paint11_linear_21_18120" x1="54.5786" y1="93.4449" x2="257.594" y2="474.046" gradientUnits="userSpaceOnUse">
<stop stop-color="#AA80F9"/>
<stop offset="0.9964" stop-color="#6165D7"/>
</linearGradient>
<linearGradient id="paint12_linear_21_18120" x1="73.7233" y1="83.2346" x2="276.739" y2="463.836" gradientUnits="userSpaceOnUse">
<stop stop-color="#AA80F9"/>
<stop offset="0.9964" stop-color="#6165D7"/>
</linearGradient>
<linearGradient id="paint13_linear_21_18120" x1="92.7121" y1="73.1049" x2="295.727" y2="453.705" gradientUnits="userSpaceOnUse">
<stop stop-color="#AA80F9"/>
<stop offset="0.9964" stop-color="#6165D7"/>
</linearGradient>
<linearGradient id="paint14_linear_21_18120" x1="111.549" y1="63.0586" x2="314.565" y2="443.66" gradientUnits="userSpaceOnUse">
<stop stop-color="#AA80F9"/>
<stop offset="0.9964" stop-color="#6165D7"/>
</linearGradient>
<linearGradient id="paint15_linear_21_18120" x1="130.235" y1="53.0904" x2="333.25" y2="433.692" gradientUnits="userSpaceOnUse">
<stop stop-color="#AA80F9"/>
<stop offset="0.9964" stop-color="#6165D7"/>
</linearGradient>
<linearGradient id="paint16_linear_21_18120" x1="207.07" y1="227.861" x2="323.051" y2="227.861" gradientUnits="userSpaceOnUse">
<stop stop-color="#FF9085"/>
<stop offset="1" stop-color="#FB6FBB"/>
</linearGradient>
<linearGradient id="paint17_linear_21_18120" x1="106.866" y1="282.295" x2="205.608" y2="285.663" gradientUnits="userSpaceOnUse">
<stop stop-color="#FF9085"/>
<stop offset="1" stop-color="#FB6FBB"/>
</linearGradient>
<linearGradient id="paint18_linear_21_18120" x1="322.029" y1="344.711" x2="334.737" y2="328.766" gradientUnits="userSpaceOnUse">
<stop stop-color="#AA80F9"/>
<stop offset="0.9964" stop-color="#6165D7"/>
</linearGradient>
<linearGradient id="paint19_linear_21_18120" x1="443.6" y1="459.672" x2="424.798" y2="466.105" gradientUnits="userSpaceOnUse">
<stop stop-color="#444B8C"/>
<stop offset="0.9964" stop-color="#26264F"/>
</linearGradient>
<linearGradient id="paint20_linear_21_18120" x1="432.25" y1="462.63" x2="415.389" y2="452.777" gradientUnits="userSpaceOnUse">
<stop stop-color="#FFC444"/>
<stop offset="0.9964" stop-color="#F36F56"/>
</linearGradient>
<linearGradient id="paint21_linear_21_18120" x1="417.873" y1="477.561" x2="399.18" y2="484.37" gradientUnits="userSpaceOnUse">
<stop stop-color="#444B8C"/>
<stop offset="0.9964" stop-color="#26264F"/>
</linearGradient>
<linearGradient id="paint22_linear_21_18120" x1="406.463" y1="481.105" x2="389.602" y2="471.253" gradientUnits="userSpaceOnUse">
<stop stop-color="#FFC444"/>
<stop offset="0.9964" stop-color="#F36F56"/>
</linearGradient>
<linearGradient id="paint23_linear_21_18120" x1="252.092" y1="418.772" x2="303.35" y2="354.457" gradientUnits="userSpaceOnUse">
<stop stop-color="#AA80F9"/>
<stop offset="0.9964" stop-color="#6165D7"/>
</linearGradient>
<linearGradient id="paint24_linear_21_18120" x1="253.66" y1="418.972" x2="306.291" y2="357.807" gradientUnits="userSpaceOnUse">
<stop stop-color="#AA80F9"/>
<stop offset="0.9964" stop-color="#6165D7"/>
</linearGradient>
<linearGradient id="paint25_linear_21_18120" x1="229.413" y1="389.497" x2="274.912" y2="326.016" gradientUnits="userSpaceOnUse">
<stop stop-color="#AA80F9"/>
<stop offset="0.9964" stop-color="#6165D7"/>
</linearGradient>
<linearGradient id="paint26_linear_21_18120" x1="339.012" y1="482.325" x2="377.556" y2="373.657" gradientUnits="userSpaceOnUse">
<stop stop-color="#444B8C"/>
<stop offset="0.9964" stop-color="#26264F"/>
</linearGradient>
<linearGradient id="paint27_linear_21_18120" x1="348.244" y1="390.639" x2="300.126" y2="500.995" gradientUnits="userSpaceOnUse">
<stop stop-color="#444B8C"/>
<stop offset="0.9964" stop-color="#26264F"/>
</linearGradient>
<linearGradient id="paint28_linear_21_18120" x1="320.248" y1="423.495" x2="301.616" y2="394.512" gradientUnits="userSpaceOnUse">
<stop stop-color="#311944"/>
<stop offset="1" stop-color="#893976"/>
</linearGradient>
<linearGradient id="paint29_linear_21_18120" x1="265.59" y1="386.038" x2="276.214" y2="413.834" gradientUnits="userSpaceOnUse">
<stop stop-color="#311944"/>
<stop offset="1" stop-color="#893976"/>
</linearGradient>
<linearGradient id="paint30_linear_21_18120" x1="267.867" y1="391.671" x2="289.898" y2="387.717" gradientUnits="userSpaceOnUse">
<stop stop-color="#FFC444"/>
<stop offset="0.9964" stop-color="#F36F56"/>
</linearGradient>
<linearGradient id="paint31_linear_21_18120" x1="344.398" y1="379.248" x2="318.768" y2="350.749" gradientUnits="userSpaceOnUse">
<stop stop-color="#444B8C"/>
<stop offset="0.9964" stop-color="#26264F"/>
</linearGradient>
<linearGradient id="paint32_linear_21_18120" x1="307.987" y1="436.239" x2="352.881" y2="333.634" gradientUnits="userSpaceOnUse">
<stop stop-color="#311944"/>
<stop offset="1" stop-color="#893976"/>
</linearGradient>
<linearGradient id="paint33_linear_21_18120" x1="281.058" y1="372.951" x2="381.799" y2="365.92" gradientUnits="userSpaceOnUse">
<stop stop-color="#311944"/>
<stop offset="1" stop-color="#893976"/>
</linearGradient>
<linearGradient id="paint34_linear_21_18120" x1="274.958" y1="326.772" x2="302.25" y2="269.248" gradientUnits="userSpaceOnUse">
<stop stop-color="#FFC444"/>
<stop offset="0.9964" stop-color="#F36F56"/>
</linearGradient>
<linearGradient id="paint35_linear_21_18120" x1="268.168" y1="314.986" x2="304.096" y2="265.661" gradientUnits="userSpaceOnUse">
<stop stop-color="#444B8C"/>
<stop offset="0.9964" stop-color="#26264F"/>
</linearGradient>
<linearGradient id="paint36_linear_21_18120" x1="290.848" y1="281.569" x2="279.998" y2="341.349" gradientUnits="userSpaceOnUse">
<stop stop-color="#FFC444"/>
<stop offset="0.9964" stop-color="#F36F56"/>
</linearGradient>
<linearGradient id="paint37_linear_21_18120" x1="276.187" y1="310.966" x2="301.891" y2="275.678" gradientUnits="userSpaceOnUse">
<stop stop-color="#444B8C"/>
<stop offset="0.9964" stop-color="#26264F"/>
</linearGradient>
<linearGradient id="paint38_linear_21_18120" x1="295.513" y1="289.771" x2="292.887" y2="296.907" gradientUnits="userSpaceOnUse">
<stop stop-color="#FFC444"/>
<stop offset="1" stop-color="#F36F56"/>
</linearGradient>
<linearGradient id="paint39_linear_21_18120" x1="20.6546" y1="150.123" x2="53.2865" y2="204.468" gradientUnits="userSpaceOnUse">
<stop stop-color="#AA80F9"/>
<stop offset="0.9964" stop-color="#6165D7"/>
</linearGradient>
<linearGradient id="paint40_linear_21_18120" x1="43.0445" y1="446.595" x2="55.5599" y2="447.834" gradientUnits="userSpaceOnUse">
<stop stop-color="#AA80F9"/>
<stop offset="0.9964" stop-color="#6165D7"/>
</linearGradient>
<linearGradient id="paint41_linear_21_18120" x1="66.5054" y1="453.365" x2="79.0208" y2="454.603" gradientUnits="userSpaceOnUse">
<stop stop-color="#AA80F9"/>
<stop offset="0.9964" stop-color="#6165D7"/>
</linearGradient>
<linearGradient id="paint42_linear_21_18120" x1="30.9859" y1="351.288" x2="107.366" y2="350.069" gradientUnits="userSpaceOnUse">
<stop stop-color="#444B8C"/>
<stop offset="0.9964" stop-color="#26264F"/>
</linearGradient>
<linearGradient id="paint43_linear_21_18120" x1="27.7766" y1="345.543" x2="101.292" y2="352.529" gradientUnits="userSpaceOnUse">
<stop stop-color="#444B8C"/>
<stop offset="0.9964" stop-color="#26264F"/>
</linearGradient>
<linearGradient id="paint44_linear_21_18120" x1="191.991" y1="217.775" x2="50.1579" y2="131.03" gradientUnits="userSpaceOnUse">
<stop stop-color="#311944"/>
<stop offset="1" stop-color="#6B3976"/>
</linearGradient>
<linearGradient id="paint45_linear_21_18120" x1="190.04" y1="220.959" x2="48.2082" y2="134.215" gradientUnits="userSpaceOnUse">
<stop stop-color="#311944"/>
<stop offset="1" stop-color="#6B3976"/>
</linearGradient>
<linearGradient id="paint46_linear_21_18120" x1="56.6918" y1="203.599" x2="167.4" y2="311.206" gradientUnits="userSpaceOnUse">
<stop stop-color="#AA80F9"/>
<stop offset="0.9964" stop-color="#6165D7"/>
</linearGradient>
<linearGradient id="paint47_linear_21_18120" x1="65.4347" y1="196.256" x2="182.519" y2="280.968" gradientUnits="userSpaceOnUse">
<stop stop-color="#AA80F9"/>
<stop offset="0.9964" stop-color="#6165D7"/>
</linearGradient>
<linearGradient id="paint48_linear_21_18120" x1="77.4803" y1="184.351" x2="75.9481" y2="117.859" gradientUnits="userSpaceOnUse">
<stop stop-color="#FFC444"/>
<stop offset="0.9964" stop-color="#F36F56"/>
</linearGradient>
<linearGradient id="paint49_linear_21_18120" x1="77.823" y1="175.088" x2="86.1298" y2="121.357" gradientUnits="userSpaceOnUse">
<stop stop-color="#FFC444"/>
<stop offset="0.9964" stop-color="#F36F56"/>
</linearGradient>
<linearGradient id="paint50_linear_21_18120" x1="72.6124" y1="127.966" x2="83.2272" y2="183.354" gradientUnits="userSpaceOnUse">
<stop stop-color="#FFC444"/>
<stop offset="0.9964" stop-color="#F36F56"/>
</linearGradient>
<linearGradient id="paint51_linear_21_18120" x1="195.748" y1="211.632" x2="53.9155" y2="124.887" gradientUnits="userSpaceOnUse">
<stop stop-color="#311944"/>
<stop offset="1" stop-color="#6B3976"/>
</linearGradient>
<linearGradient id="paint52_linear_21_18120" x1="89.327" y1="196.758" x2="148.742" y2="261.633" gradientUnits="userSpaceOnUse">
<stop stop-color="#AA80F9"/>
<stop offset="0.9964" stop-color="#6165D7"/>
</linearGradient>
<linearGradient id="paint53_linear_21_18120" x1="192.159" y1="217.494" x2="50.3272" y2="130.749" gradientUnits="userSpaceOnUse">
<stop stop-color="#311944"/>
<stop offset="1" stop-color="#6B3976"/>
</linearGradient>
<linearGradient id="paint54_linear_21_18120" x1="70.1333" y1="186.384" x2="51.7005" y2="196.988" gradientUnits="userSpaceOnUse">
<stop stop-color="#FFC444"/>
<stop offset="0.9964" stop-color="#F36F56"/>
</linearGradient>
<linearGradient id="paint55_linear_21_18120" x1="19.508" y1="198.177" x2="90.8669" y2="218.956" gradientUnits="userSpaceOnUse">
<stop stop-color="#FF9085"/>
<stop offset="1" stop-color="#FB6FBB"/>
</linearGradient>
<linearGradient id="paint56_linear_21_18120" x1="52.484" y1="210.996" x2="70.2612" y2="231.447" gradientUnits="userSpaceOnUse">
<stop stop-color="#FFC444"/>
<stop offset="0.9964" stop-color="#F36F56"/>
</linearGradient>
<linearGradient id="paint57_linear_21_18120" x1="33.3702" y1="190.335" x2="11.8004" y2="205.835" gradientUnits="userSpaceOnUse">
<stop stop-color="#FFC444"/>
<stop offset="0.9964" stop-color="#F36F56"/>
</linearGradient>
<linearGradient id="paint58_linear_21_18120" x1="32.1441" y1="204.099" x2="-0.506395" y2="236.73" gradientUnits="userSpaceOnUse">
<stop stop-color="#AA80F9"/>
<stop offset="0.9964" stop-color="#6165D7"/>
</linearGradient>
</defs>
</svg>
