<svg width="464" height="263" viewBox="0 0 464 263" fill="none" xmlns="http://www.w3.org/2000/svg">
<path d="M233.173 164.448C233.173 172.768 229.973 180.288 223.573 187.008C222.229 188.416 220.373 189.12 218.005 189.12C214.165 189.12 210.997 188.16 208.501 186.24C203.893 182.72 201.589 175.68 201.589 165.12C201.589 158.144 202.997 150.784 205.813 143.04C208.629 135.296 212.213 128.224 216.565 121.824C217.205 121.056 217.685 120.672 218.005 120.672C218.325 120.672 218.677 120.768 219.061 120.96C219.509 121.152 219.957 121.376 220.405 121.632C220.917 121.888 221.269 122.048 221.461 122.112V119.232C221.077 118.464 220.885 117.792 220.885 117.216C220.885 116.64 221.141 116.352 221.653 116.352C222.165 116.352 222.709 116.448 223.285 116.64C228.917 118.56 231.733 123.168 231.733 130.464C231.733 134.624 230.677 138.88 228.565 143.232C227.989 144.384 227.477 144.96 227.029 144.96C226.709 144.96 226.229 144.448 225.589 143.424C223.541 139.2 222.229 133.728 221.653 127.008C220.693 127.008 219.989 127.36 219.541 128.064C219.093 128.768 218.325 130.624 217.237 133.632C213.205 144.512 211.189 155.68 211.189 167.136C211.189 173.472 211.893 178.88 213.301 183.36C217.461 179.456 221.045 174.624 224.053 168.864C227.125 163.04 229.397 157.088 230.869 151.008C232.405 156.064 233.173 160.544 233.173 164.448ZM247.009 175.456V176.096C247.009 177.632 247.478 178.784 248.417 179.552C249.398 180.277 250.849 180.64 252.769 180.64C253.921 180.64 255.094 180.533 256.289 180.32C257.483 180.107 258.465 179.829 259.233 179.488C259.574 179.36 259.873 179.296 260.129 179.296C260.897 179.296 261.537 179.595 262.049 180.192C262.603 180.747 262.881 181.429 262.881 182.24C262.881 182.667 262.774 183.093 262.561 183.52C262.39 183.904 262.113 184.245 261.729 184.544C260.918 185.184 259.638 185.696 257.889 186.08C256.182 186.464 254.305 186.656 252.257 186.656C248.203 186.656 245.089 185.653 242.913 183.648C240.737 181.643 239.649 178.763 239.649 175.008V172.512C239.649 168.459 240.694 165.365 242.785 163.232C244.875 161.099 247.883 160.032 251.809 160.032C255.905 160.032 258.891 161.205 260.769 163.552C261.451 164.448 262.027 165.643 262.497 167.136C262.966 168.587 263.201 170.037 263.201 171.488C263.201 172.981 262.71 174.027 261.729 174.624C260.747 175.179 259.595 175.456 258.273 175.456H247.009ZM256.481 170.656C256.31 168.736 255.862 167.392 255.137 166.624C254.454 165.813 253.366 165.408 251.873 165.408C250.251 165.408 249.057 165.835 248.289 166.688C247.521 167.499 247.073 168.821 246.945 170.656H256.481ZM278.407 186.656C273.841 186.656 270.663 185.867 268.871 184.288C267.847 183.435 267.335 182.475 267.335 181.408C267.335 180.555 267.633 179.808 268.231 179.168C268.828 178.528 269.553 178.208 270.407 178.208C270.62 178.208 270.833 178.251 271.047 178.336C271.303 178.379 271.58 178.485 271.879 178.656C273.031 179.296 274.183 179.787 275.335 180.128C276.487 180.427 277.617 180.576 278.727 180.576C280.903 180.576 281.991 179.851 281.991 178.4C281.991 177.931 281.884 177.568 281.671 177.312C281.5 177.056 281.116 176.8 280.519 176.544C279.964 176.288 279.068 175.989 277.831 175.648C276.167 175.221 274.652 174.773 273.287 174.304C271.964 173.792 270.897 173.088 270.087 172.192C269.276 171.253 268.871 169.931 268.871 168.224C268.871 165.579 269.724 163.552 271.431 162.144C273.137 160.736 275.569 160.032 278.727 160.032C282.225 160.032 284.743 160.693 286.279 162.016C287.004 162.613 287.367 163.403 287.367 164.384C287.367 165.195 287.068 165.92 286.471 166.56C285.873 167.2 285.191 167.52 284.423 167.52C284.209 167.52 283.996 167.499 283.783 167.456C283.612 167.371 283.121 167.221 282.311 167.008C281.756 166.667 281.223 166.432 280.711 166.304C280.241 166.176 279.687 166.112 279.047 166.112C278.023 166.112 277.255 166.261 276.743 166.56C276.273 166.859 276.039 167.307 276.039 167.904C276.039 168.245 276.124 168.544 276.295 168.8C276.465 169.013 276.913 169.248 277.639 169.504C278.364 169.717 279.58 170.08 281.287 170.592C284.188 171.403 286.215 172.384 287.367 173.536C288.519 174.688 289.095 176.331 289.095 178.464C289.095 183.925 285.532 186.656 278.407 186.656ZM303.812 186.656C299.246 186.656 296.068 185.867 294.276 184.288C293.252 183.435 292.74 182.475 292.74 181.408C292.74 180.555 293.038 179.808 293.636 179.168C294.233 178.528 294.958 178.208 295.812 178.208C296.025 178.208 296.238 178.251 296.452 178.336C296.708 178.379 296.985 178.485 297.284 178.656C298.436 179.296 299.588 179.787 300.74 180.128C301.892 180.427 303.022 180.576 304.132 180.576C306.308 180.576 307.396 179.851 307.396 178.4C307.396 177.931 307.289 177.568 307.076 177.312C306.905 177.056 306.521 176.8 305.924 176.544C305.369 176.288 304.473 175.989 303.236 175.648C301.572 175.221 300.057 174.773 298.692 174.304C297.369 173.792 296.302 173.088 295.492 172.192C294.681 171.253 294.276 169.931 294.276 168.224C294.276 165.579 295.129 163.552 296.836 162.144C298.542 160.736 300.974 160.032 304.132 160.032C307.63 160.032 310.148 160.693 311.684 162.016C312.409 162.613 312.772 163.403 312.772 164.384C312.772 165.195 312.473 165.92 311.876 166.56C311.278 167.2 310.596 167.52 309.828 167.52C309.614 167.52 309.401 167.499 309.188 167.456C309.017 167.371 308.526 167.221 307.716 167.008C307.161 166.667 306.628 166.432 306.116 166.304C305.646 166.176 305.092 166.112 304.452 166.112C303.428 166.112 302.66 166.261 302.148 166.56C301.678 166.859 301.444 167.307 301.444 167.904C301.444 168.245 301.529 168.544 301.7 168.8C301.87 169.013 302.318 169.248 303.044 169.504C303.769 169.717 304.985 170.08 306.692 170.592C309.593 171.403 311.62 172.384 312.772 173.536C313.924 174.688 314.5 176.331 314.5 178.464C314.5 183.925 310.937 186.656 303.812 186.656ZM333.074 172.576V181.856C333.074 183.349 332.733 184.523 332.05 185.376C331.367 186.187 330.407 186.592 329.17 186.592C327.975 186.592 327.037 186.187 326.354 185.376C325.671 184.523 325.33 183.349 325.33 181.856V151.904C325.33 150.368 325.821 149.301 326.802 148.704C327.783 148.107 328.935 147.808 330.258 147.808H337.298C340.413 147.808 343.037 148.149 345.17 148.832C347.303 149.515 348.903 150.731 349.97 152.48C351.079 154.229 351.634 156.768 351.634 160.096C351.634 162.699 351.271 164.832 350.546 166.496C349.863 168.117 348.861 169.376 347.538 170.272C346.215 171.125 344.594 171.723 342.674 172.064C340.754 172.405 338.599 172.576 336.21 172.576H333.074ZM332.946 166.112H337.426C339.09 166.112 340.391 165.92 341.33 165.536C342.311 165.152 342.994 164.533 343.378 163.68C343.805 162.784 344.018 161.611 344.018 160.16C344.018 157.941 343.549 156.405 342.61 155.552C341.714 154.699 340.135 154.272 337.874 154.272H332.946V166.112ZM366.411 186.592C363.424 186.592 361.291 185.568 360.011 183.52C359.328 182.453 358.859 181.109 358.603 179.488C358.347 177.867 358.219 175.52 358.219 172.448V150.048C358.219 148.597 358.539 147.488 359.179 146.72C359.819 145.952 360.715 145.568 361.867 145.568C363.061 145.568 363.979 145.952 364.619 146.72C365.259 147.488 365.579 148.597 365.579 150.048V173.728C365.579 175.264 365.643 176.459 365.771 177.312C365.899 178.165 366.112 178.805 366.411 179.232C366.752 179.659 367.2 179.979 367.755 180.192C368.395 180.448 368.885 180.875 369.227 181.472C369.611 182.027 369.803 182.752 369.803 183.648C369.76 184.501 369.419 185.205 368.779 185.76C368.139 186.315 367.349 186.592 366.411 186.592ZM390.686 184.544C388.723 185.952 386.441 186.656 383.838 186.656C379.059 186.656 376.094 184.821 374.942 181.152C374.729 180.469 374.579 179.616 374.494 178.592C374.409 177.568 374.366 176.267 374.366 174.688V164.576C374.366 163.125 374.686 162.016 375.326 161.248C375.966 160.48 376.862 160.096 378.014 160.096C379.209 160.096 380.126 160.48 380.766 161.248C381.406 162.016 381.726 163.125 381.726 164.576V174.112C381.726 176.16 381.897 177.611 382.238 178.464C382.494 179.104 382.878 179.552 383.39 179.808C383.902 180.064 384.542 180.192 385.31 180.192C386.974 180.192 388.126 179.659 388.766 178.592C389.107 178.037 389.342 177.333 389.47 176.48C389.598 175.627 389.662 174.517 389.662 173.152V164.576C389.662 163.125 389.982 162.016 390.622 161.248C391.262 160.48 392.179 160.096 393.374 160.096C394.526 160.096 395.422 160.48 396.062 161.248C396.745 162.016 397.086 163.125 397.086 164.576V183.456C397.086 184.779 396.723 185.632 395.998 186.016C395.273 186.4 394.355 186.592 393.246 186.592C392.649 186.592 392.094 186.443 391.582 186.144C391.113 185.888 390.814 185.355 390.686 184.544ZM420.384 184.416C418.72 185.909 416.523 186.656 413.792 186.656C410.507 186.656 408.032 185.675 406.368 183.712C404.704 181.707 403.872 178.741 403.872 174.816V172.704C403.872 168.651 404.768 165.536 406.56 163.36C408.395 161.141 410.997 160.032 414.368 160.032C417.056 160.032 419.317 160.928 421.152 162.72C421.28 161.696 421.579 161.013 422.048 160.672C422.517 160.288 423.328 160.096 424.48 160.096C425.675 160.096 426.485 160.48 426.912 161.248C427.381 161.973 427.616 162.848 427.616 163.872V181.152C427.616 183.797 427.552 185.909 427.424 187.488C427.339 189.109 427.147 190.411 426.848 191.392C426.549 192.416 426.123 193.355 425.568 194.208C423.307 197.579 419.573 199.264 414.368 199.264C408.309 199.264 404.981 197.835 404.384 194.976C404.341 194.592 404.384 194.165 404.512 193.696C404.725 193.056 405.067 192.544 405.536 192.16C406.048 191.819 406.603 191.648 407.2 191.648C407.499 191.648 407.733 191.669 407.904 191.712C408.075 191.755 408.352 191.883 408.736 192.096C410.059 192.864 411.616 193.248 413.408 193.248C414.688 193.248 415.776 193.056 416.672 192.672C417.568 192.288 418.272 191.755 418.784 191.072C419.339 190.432 419.744 189.643 420 188.704C420.256 187.765 420.384 186.741 420.384 185.632V184.416ZM420.192 172.576C420.192 171.253 420.043 170.144 419.744 169.248C419.488 168.352 419.04 167.669 418.4 167.2C417.803 166.731 416.928 166.496 415.776 166.496C414.197 166.496 413.067 166.987 412.384 167.968C411.701 168.949 411.36 170.528 411.36 172.704V174.112C411.36 176.245 411.701 177.803 412.384 178.784C413.067 179.723 414.176 180.192 415.712 180.192C417.333 180.192 418.485 179.723 419.168 178.784C419.893 177.803 420.256 176.245 420.256 174.112L420.192 172.576Z" fill="white"/>
<g filter="url(#filter0_d_141_4802)">
<path d="M103.729 133.277H87.0605V221.547H103.729V133.277Z" fill="white"/>
<path d="M128.731 186.236H78.7251C64.939 186.236 53.7227 174.357 53.7227 159.755V124.446C53.7227 109.844 64.939 97.9656 78.7251 97.9656H137.065V115.62H78.7251C74.1293 115.62 70.3914 119.58 70.3914 124.446V159.755C70.3914 164.622 74.1306 168.581 78.7251 168.581H128.731C133.327 168.581 137.065 164.621 137.065 159.755C137.065 154.889 133.326 150.928 128.731 150.928H120.398V133.274H128.731C142.517 133.274 153.734 145.152 153.734 159.755C153.735 174.357 142.519 186.236 128.731 186.236Z" fill="white"/>
</g>
<path d="M76.4272 73.4065C79.1597 70.5124 79.1597 65.8201 76.4271 62.9261C73.6946 60.032 69.2643 60.032 66.5317 62.926C63.7992 65.8201 63.7992 70.5124 66.5317 73.4065C69.2643 76.3006 73.6946 76.3006 76.4272 73.4065Z" fill="white" stroke="white" stroke-width="5.3549" stroke-miterlimit="10"/>
<path d="M126.537 73.4067C129.269 70.5126 129.269 65.8204 126.537 62.9263C123.804 60.0322 119.374 60.0322 116.641 62.9263C113.909 65.8204 113.909 70.5126 116.641 73.4067C119.374 76.3008 123.804 76.3008 126.537 73.4067Z" fill="white" stroke="white" stroke-width="5.3549" stroke-miterlimit="10"/>
<path d="M188.951 257.355H4.9082L19.5984 46.7874H174.262L188.951 257.355Z" stroke="white" stroke-width="9.8173" stroke-miterlimit="10" stroke-linecap="round" stroke-linejoin="round"/>
<path d="M71.4824 68.1657V31.89C71.4824 17.2349 82.6995 5.35474 96.5365 5.35474C110.374 5.35474 121.591 17.2349 121.591 31.89V68.1657" stroke="white" stroke-width="10.7097" stroke-miterlimit="10" stroke-linecap="round" stroke-linejoin="round"/>
<defs>
<filter id="filter0_d_141_4802" x="49.7227" y="97.9656" width="108.012" height="131.581" filterUnits="userSpaceOnUse" color-interpolation-filters="sRGB">
<feFlood flood-opacity="0" result="BackgroundImageFix"/>
<feColorMatrix in="SourceAlpha" type="matrix" values="0 0 0 0 0 0 0 0 0 0 0 0 0 0 0 0 0 0 127 0" result="hardAlpha"/>
<feOffset dy="4"/>
<feGaussianBlur stdDeviation="2"/>
<feComposite in2="hardAlpha" operator="out"/>
<feColorMatrix type="matrix" values="0 0 0 0 0 0 0 0 0 0 0 0 0 0 0 0 0 0 0.5 0"/>
<feBlend mode="normal" in2="BackgroundImageFix" result="effect1_dropShadow_141_4802"/>
<feBlend mode="normal" in="SourceGraphic" in2="effect1_dropShadow_141_4802" result="shape"/>
</filter>
</defs>
</svg>
